<?xml version="1.0" standalone="no"?>
<!DOCTYPE svg PUBLIC "-//W3C//DTD SVG 20010904//EN"
 "http://www.w3.org/TR/2001/REC-SVG-20010904/DTD/svg10.dtd">
<svg version="1.0" xmlns="http://www.w3.org/2000/svg"
 width="252.000000pt" height="252.000000pt" viewBox="0 0 252.000000 252.000000"
 preserveAspectRatio="xMidYMid meet">
<metadata>
Created by potrace 1.11, written by Peter Selinger 2001-2013
</metadata>
<g transform="translate(0.000000,252.000000) scale(0.100000,-0.100000)"
fill="#000000" stroke="none">
<path d="M311 2503 c-7 -8 -22 -11 -35 -7 -17 4 -28 0 -39 -17 -9 -12 -14 -26
-11 -31 3 -4 1 -8 -5 -8 -6 0 -8 -7 -4 -16 3 -8 -5 -26 -18 -41 l-24 -27 32
25 c18 13 30 30 28 37 -3 6 3 12 12 12 12 0 13 3 3 15 -14 16 -5 35 16 35 20
0 94 24 94 30 0 11 -37 5 -49 -7z"/>
<path d="M404 2488 c3 -17 13 -39 22 -49 14 -15 13 -17 -13 -22 -15 -3 -47
-10 -71 -16 -30 -8 -49 -8 -62 -1 -12 6 -20 7 -20 1 0 -16 50 -22 93 -10 23 7
48 11 55 10 8 -1 20 3 28 10 22 18 42 4 37 -25 -3 -15 -10 -23 -16 -19 -5 3
-7 1 -4 -4 11 -17 47 -23 47 -8 0 7 -5 15 -12 17 -6 2 -9 12 -5 21 5 14 11 15
31 6 13 -6 30 -22 37 -35 7 -13 20 -24 29 -24 25 0 40 -21 40 -54 0 -23 3 -27
10 -16 16 25 20 5 4 -24 -8 -16 -12 -31 -9 -34 2 -3 12 12 20 32 12 29 21 37
38 34 25 -3 35 -45 18 -77 -10 -19 -14 -19 -50 -6 -22 7 -43 10 -47 7 -4 -4
-4 -1 1 7 6 11 0 13 -29 9 -20 -2 -36 0 -36 4 0 5 -18 15 -40 24 -22 9 -40 20
-40 24 0 13 61 30 93 26 28 -3 36 7 15 20 -6 4 -13 3 -15 -2 -5 -15 -134 -9
-143 7 -11 17 -4 29 18 30 9 1 -8 5 -38 9 -65 8 -73 5 -34 -12 16 -7 37 -23
47 -35 10 -13 25 -23 33 -23 8 0 14 -7 14 -15 0 -8 15 -24 33 -35 l32 -20 -27
0 c-15 0 -44 9 -64 20 -20 12 -38 19 -41 16 -3 -2 8 -11 24 -20 l28 -15 -36
-1 c-42 0 -157 -34 -209 -60 -70 -36 -194 -175 -188 -211 2 -18 8 -14 36 30
19 28 46 59 60 68 15 9 40 28 57 42 25 22 26 22 11 4 -11 -13 -15 -23 -10 -24
5 0 -3 -6 -18 -13 -37 -16 -107 -106 -83 -106 3 0 10 12 15 26 6 14 14 23 19
20 5 -3 12 6 15 20 5 17 12 24 21 20 9 -3 27 10 46 32 17 20 29 30 26 21 -7
-20 37 -30 72 -17 15 5 21 3 21 -6 0 -8 -14 -12 -40 -12 -23 1 -40 -4 -40 -10
0 -6 10 -9 24 -7 13 3 27 -1 31 -8 5 -8 4 -10 -4 -5 -6 4 -18 2 -26 -4 -11 -9
-17 -7 -27 9 -7 12 -19 21 -27 21 -11 0 -11 -3 -1 -15 11 -13 7 -15 -23 -15
-29 0 -35 -3 -30 -16 3 -9 0 -20 -7 -24 -9 -6 -9 -9 0 -15 7 -4 13 1 17 13 6
26 43 25 43 0 0 -10 7 -18 16 -18 8 0 12 -5 9 -10 -4 -6 -14 -10 -23 -9 -42 4
-122 -2 -122 -9 0 -4 43 -7 95 -8 52 0 95 4 95 8 0 4 -7 8 -15 8 -8 0 -15 4
-15 10 0 5 7 7 15 4 8 -4 15 -2 15 3 0 8 13 9 51 4 3 -1 4 -13 1 -28 -4 -24
-3 -25 11 -12 8 8 14 18 14 23 -1 5 11 11 28 13 16 2 26 1 21 -4 -4 -4 -13 -8
-19 -8 -7 0 -11 -8 -9 -18 2 -11 -4 -17 -16 -17 -11 0 -31 -11 -47 -26 -15
-14 -30 -22 -34 -19 -3 4 2 11 12 16 28 16 20 24 -23 24 -22 0 -40 -3 -40 -7
0 -4 -10 -17 -22 -29 l-23 -22 28 7 c26 6 28 5 22 -15 -5 -13 -3 -19 3 -15 5
3 15 -1 21 -8 8 -9 8 -17 2 -20 -5 -3 -11 0 -14 6 -3 10 -7 10 -20 -1 -10 -7
-17 -19 -17 -25 0 -8 2 -8 8 0 4 7 16 8 27 4 19 -7 18 -8 -5 -16 -14 -4 -29
-7 -35 -6 -5 1 -1 -5 9 -13 18 -14 15 -20 -8 -16 -5 1 -4 -4 3 -13 8 -10 9
-16 1 -21 -5 -3 -10 -24 -10 -47 0 -40 0 -40 24 -25 22 15 25 15 38 0 11 -14
10 -16 -8 -11 -12 3 -28 2 -35 -3 -10 -6 -5 -10 19 -15 39 -8 42 -23 5 -22
-16 0 -32 -1 -38 -2 -20 -5 -35 0 -35 11 0 6 9 8 21 4 16 -5 20 -3 17 6 -3 8
-11 14 -19 14 -8 0 -24 10 -35 21 -14 14 -31 20 -50 19 -16 -2 -37 -3 -46 -4
-10 -1 -18 -4 -18 -8 0 -5 25 -8 55 -7 39 0 55 -3 55 -13 0 -7 -5 -13 -11 -13
-5 0 -8 3 -6 8 3 4 -11 6 -31 5 -21 -1 -46 -2 -57 -2 -11 -1 -16 -5 -10 -9 16
-11 19 -46 3 -36 -10 6 -10 4 1 -9 8 -10 9 -17 3 -17 -6 0 -10 -19 -9 -45 1
-25 5 -39 9 -32 7 11 12 2 9 -16 -1 -5 11 -7 25 -5 17 2 28 10 30 21 1 9 -2
15 -7 11 -5 -3 -7 -9 -4 -14 4 -7 -3 -7 -34 -1 -10 2 21 29 32 27 20 -3 38
-17 32 -26 -8 -12 15 -24 49 -24 16 -1 30 -7 32 -14 1 -7 0 -8 -3 -2 -2 5 -12
10 -20 10 -12 0 -13 -3 -4 -13 6 -8 7 -18 3 -22 -4 -5 1 -5 10 -2 10 3 20 2
23 -2 2 -5 -11 -8 -30 -6 -25 1 -35 -2 -35 -13 0 -8 6 -12 13 -9 8 3 20 1 28
-4 16 -10 22 -9 -81 -12 -36 -1 -67 -6 -70 -11 -7 -12 48 -17 56 -5 3 5 11 6
17 2 6 -4 25 -8 42 -9 47 -2 51 -4 36 -13 -8 -5 -24 -6 -35 -2 -19 7 -34 7
-53 1 -5 -1 -24 -1 -43 0 -33 1 -34 1 -15 -13 19 -14 38 -13 62 5 16 13 22 -1
14 -38 0 -4 -7 -2 -14 3 -10 8 -28 9 -67 4 -5 0 -10 -4 -10 -8 0 -5 24 -8 54
-9 47 -1 53 1 52 18 -1 17 6 20 56 22 59 2 89 -6 74 -21 -5 -4 -11 -3 -13 4
-6 18 -33 4 -33 -18 0 -16 -8 -19 -47 -20 -27 -1 -52 0 -58 1 -22 5 -68 1 -76
-7 -5 -5 -6 -19 -2 -31 5 -21 11 -23 50 -19 24 2 46 1 48 -3 2 -4 23 -5 45 -3
22 2 40 0 40 -5 0 -5 -12 -8 -27 -8 -16 1 -33 -2 -40 -7 -16 -11 -35 1 -26 16
4 7 -1 6 -11 -2 -12 -10 -14 -17 -6 -25 18 -18 11 -28 -16 -22 -16 4 -23 3
-20 -3 4 -5 1 -13 -5 -17 -8 -4 -9 -3 -5 4 4 7 2 12 -3 12 -6 0 -11 4 -11 10
0 5 3 9 7 9 24 -4 40 3 40 16 0 18 -18 20 -35 3 -9 -9 -12 -9 -12 1 0 7 -4 9
-10 6 -5 -3 -8 -14 -6 -23 12 -52 19 -62 52 -68 19 -3 34 -10 34 -14 0 -5 -12
-7 -26 -4 -15 3 -32 6 -38 7 -6 1 -14 7 -18 12 -5 6 -8 6 -8 -2 0 -6 4 -14 10
-18 5 -3 7 -12 3 -20 -7 -19 15 -47 30 -38 6 3 7 1 3 -5 -3 -6 -15 -9 -26 -7
-13 2 -20 -2 -20 -11 0 -11 6 -13 19 -9 11 3 22 1 25 -4 4 -5 14 -8 24 -6 13
2 18 -4 19 -27 1 -31 -7 -32 -11 -2 -3 17 -37 26 -62 17 -6 -2 -11 -40 -13
-89 -2 -68 1 -84 11 -78 11 6 11 5 0 -8 -10 -12 -10 -18 -1 -23 8 -6 8 -9 -1
-15 -16 -10 -3 -33 13 -24 7 3 3 -2 -8 -11 -16 -13 -17 -17 -6 -24 11 -7 11
-9 0 -13 -12 -4 -12 -7 0 -21 7 -9 17 -15 20 -12 4 2 8 -2 8 -10 0 -13 -4 -12
-19 2 -10 9 -18 12 -17 7 2 -25 219 -178 219 -155 0 5 -9 11 -20 14 -11 3 -20
14 -20 25 0 10 -7 33 -16 51 -9 18 -14 34 -11 37 2 3 35 -24 72 -58 60 -57
115 -96 115 -84 0 3 38 -8 85 -24 47 -16 85 -25 85 -19 0 5 -8 9 -18 9 -21 0
-52 30 -56 54 -1 8 -9 23 -18 33 -17 20 -69 123 -61 123 2 0 16 -13 30 -30 13
-16 29 -30 35 -30 6 0 5 7 -3 16 -37 44 3 54 48 12 18 -17 23 -18 17 -5 -5 14
0 17 32 17 41 0 76 -24 67 -46 -3 -8 2 -17 11 -20 9 -3 14 -9 12 -13 -3 -4 60
-74 140 -156 79 -82 144 -153 144 -157 0 -4 8 -8 17 -8 14 0 13 3 -5 23 -12
13 -22 28 -22 34 0 6 -7 13 -15 17 -8 3 -12 11 -9 19 3 8 -3 20 -13 28 -16 13
-17 12 -4 -4 8 -9 12 -20 9 -22 -5 -5 -68 69 -68 81 0 3 7 0 17 -7 15 -13 15
-12 6 6 -6 11 -22 29 -35 40 l-23 20 18 -21 c37 -45 14 -36 -29 11 -25 28 -34
35 -20 17 37 -48 32 -62 -9 -22 -19 18 -32 36 -30 39 3 3 -16 26 -42 53 -55
56 -47 66 9 11 21 -20 38 -32 38 -26 0 6 -19 28 -42 47 -44 38 -47 59 -4 30
15 -9 29 -14 33 -10 8 7 48 -17 85 -52 15 -14 31 -23 34 -19 4 4 -4 16 -17 27
-19 17 -20 19 -4 11 11 -5 31 -22 45 -38 14 -15 18 -22 10 -15 -18 16 -38 16
-22 0 25 -25 11 -31 -16 -7 -15 13 -47 40 -72 58 -35 26 -30 19 25 -35 44 -42
89 -101 119 -151 45 -77 66 -106 66 -86 0 4 -23 46 -50 93 -27 46 -48 86 -46
87 2 2 16 -2 33 -7 26 -9 36 -25 72 -114 31 -76 42 -115 40 -145 -2 -22 0 -43
4 -47 4 -4 7 16 7 44 0 27 3 57 6 66 6 16 24 12 24 -5 0 -6 -4 -8 -9 -5 -5 4
-7 -4 -3 -16 5 -20 6 -20 12 -3 5 13 16 -5 43 -68 20 -47 37 -90 37 -96 0 -6
4 -11 9 -11 12 0 -20 93 -59 170 -40 80 -39 79 -56 56 -8 -11 -14 -15 -14 -9
0 7 5 15 10 18 14 9 13 18 -5 41 -14 18 -15 17 -10 -11 l6 -30 -15 25 c-15 25
-22 59 -9 47 9 -9 33 12 33 29 0 8 -5 14 -11 14 -5 0 -8 -4 -4 -9 3 -6 -3 -15
-13 -20 -17 -9 -22 -4 -38 32 -11 23 -29 52 -41 66 -13 13 -23 27 -23 31 0 9
29 5 60 -7 15 -6 27 -7 31 -1 10 16 69 -137 61 -160 -5 -16 24 -49 60 -68 31
-16 62 -19 53 -4 -4 6 -10 8 -14 5 -17 -10 -81 89 -81 124 0 6 -5 11 -11 11
-6 0 -8 7 -5 16 3 8 2 13 -3 9 -11 -6 -36 63 -27 72 3 4 6 1 6 -5 0 -7 7 -12
15 -12 8 0 15 -4 15 -10 0 -5 8 -10 18 -10 10 0 22 -4 27 -9 6 -5 32 -18 59
-30 28 -12 48 -20 45 -18 -2 2 -29 25 -59 52 -30 27 -42 35 -26 17 17 -17 25
-32 20 -32 -6 0 -21 11 -34 25 -15 16 -26 21 -30 15 -4 -7 -11 -6 -20 5 -7 8
-9 15 -4 16 5 0 20 2 34 4 14 1 34 -5 45 -14 13 -11 12 -7 -4 12 -23 26 -19
35 14 27 6 -1 15 -3 22 -3 7 0 10 -4 7 -9 -3 -4 3 -8 13 -9 10 0 35 -2 55 -3
34 -1 81 -26 50 -26 -6 0 -9 -7 -6 -15 4 -10 13 -13 24 -10 10 3 22 0 26 -6 5
-9 2 -10 -12 -6 -12 5 -8 -2 11 -18 16 -13 26 -27 22 -31 -6 -6 -100 73 -119
100 -4 6 -10 8 -13 4 -3 -3 5 -15 19 -26 27 -21 35 -38 14 -27 -7 4 0 -5 16
-19 17 -14 34 -23 38 -20 4 3 12 -4 16 -15 7 -19 9 -19 52 10 25 17 44 35 42
40 -1 6 6 6 17 -1 14 -7 22 -7 26 1 4 6 17 8 30 5 33 -8 96 21 129 61 16 19
34 32 42 29 8 -3 11 0 8 8 -5 13 62 66 83 66 7 0 29 -10 49 -22 21 -12 34 -17
30 -10 -14 23 8 12 65 -33 32 -25 62 -45 67 -45 5 0 12 -6 15 -14 3 -8 39 -33
79 -55 40 -23 67 -41 61 -41 -7 0 -13 -4 -13 -9 0 -6 15 -7 33 -4 49 8 113
-14 156 -52 21 -19 42 -31 46 -27 5 4 5 1 1 -6 -4 -7 -2 -20 5 -29 12 -13 28
-89 46 -215 4 -29 10 -38 24 -38 23 0 26 47 5 88 -7 15 -21 61 -31 102 -14 59
-25 82 -52 108 -34 33 -43 49 -20 36 6 -4 4 1 -5 11 -9 10 -29 19 -45 20 -15
1 -41 7 -56 13 -16 7 -31 12 -33 12 -10 0 -29 25 -32 42 -1 9 -9 34 -17 55
-12 30 -14 32 -11 10 2 -15 -1 -30 -6 -33 -5 -3 -7 -12 -4 -19 3 -8 0 -16 -7
-19 -9 -3 -9 -5 1 -5 6 -1 12 -6 12 -11 0 -7 -7 -7 -21 1 -17 9 -19 13 -8 20
7 4 10 12 5 16 -5 4 -11 2 -13 -4 -3 -7 -11 -13 -19 -13 -18 0 -104 87 -104
105 0 7 -6 18 -14 24 -15 12 -19 88 -5 97 5 3 7 -1 4 -8 -3 -7 4 -24 15 -38
16 -20 19 -21 13 -5 -6 18 -5 19 12 5 16 -12 15 -9 -4 18 -12 18 -20 39 -18
47 8 20 43 7 44 -16 2 -18 0 -19 -14 -7 -15 12 -15 11 -2 -10 8 -12 15 -18 17
-12 6 16 22 12 22 -5 0 -8 -5 -15 -11 -15 -5 0 -7 -4 -4 -10 3 -5 1 -10 -5
-10 -6 0 -8 -5 -5 -10 7 -12 -23 -9 -44 4 -16 10 -13 5 26 -53 13 -19 21 -36
18 -39 -4 -5 49 -42 60 -42 2 0 -7 11 -20 25 -29 28 -36 77 -8 54 15 -13 15
-12 4 9 -24 45 18 60 44 15 14 -25 15 -25 9 -4 -4 16 -3 21 5 17 6 -4 11 -14
11 -22 0 -8 4 -14 10 -14 10 0 3 27 -14 49 -6 8 -9 15 -6 17 3 1 2 6 -2 10 -5
4 -8 3 -8 -2 0 -5 -10 -10 -22 -11 -22 -1 -22 -1 -3 9 11 6 45 40 74 77 31 37
63 67 73 67 21 0 21 2 8 -30 -13 -35 1 -33 22 4 9 17 24 30 32 30 20 0 71 68
103 136 56 123 38 285 -59 544 -28 74 -70 209 -93 300 -57 221 -83 308 -96
316 -7 4 -9 0 -5 -13 4 -14 2 -20 -9 -20 -8 0 -15 6 -15 14 0 7 -4 13 -8 13
-5 0 -21 22 -35 49 -21 38 -24 50 -13 54 7 3 19 0 26 -6 21 -19 2 11 -42 66
-21 27 -38 60 -38 73 0 25 -77 107 -91 98 -4 -2 -11 1 -15 7 -5 8 -3 9 7 4 12
-8 12 -6 0 8 -17 21 -73 37 -134 37 -84 0 -171 -60 -249 -172 -22 -32 -48 -58
-56 -58 -9 0 -23 -7 -33 -16 -15 -14 -17 -13 -15 14 2 41 24 65 55 59 24 -5
24 -4 7 9 -14 10 -23 11 -32 3 -7 -6 -18 -8 -24 -4 -6 4 -10 3 -9 -2 3 -18 -2
-33 -10 -33 -11 0 -26 39 -23 60 2 11 1 12 -6 3 -12 -18 -73 71 -69 100 2 12
2 16 0 10 -3 -7 -8 -13 -11 -13 -13 0 -43 64 -45 95 l-2 30 -394 3 -394 2 7
-32z m1283 -114 c0 -7 -4 -12 -8 -11 -4 1 -7 -2 -8 -8 -1 -5 4 -10 11 -10 6 0
12 -8 14 -18 2 -15 0 -16 -12 -6 -14 11 -15 10 -18 -13 0 -7 -5 -13 -11 -13
-17 0 -36 -16 -30 -25 3 -4 -1 -13 -9 -19 -10 -9 -17 -7 -27 6 -13 16 -12 17
4 4 9 -7 17 -12 18 -10 6 32 5 39 -4 39 -8 0 -8 3 -2 8 6 4 11 16 10 27 0 11
5 20 12 20 13 0 27 13 29 26 2 15 3 16 17 16 8 0 14 -6 14 -13z m40 1 c0 -8
-4 -12 -9 -9 -5 3 -6 10 -3 15 9 13 12 11 12 -6z m89 -9 c-1 -14 4 -20 14 -18
8 2 11 0 7 -4 -4 -5 -19 -9 -33 -10 -22 -1 -23 1 -9 16 10 11 11 20 5 26 -7 7
-6 11 3 11 8 0 14 -10 13 -21z m-49 8 c-3 -3 -12 -4 -19 -1 -8 3 -5 6 6 6 11
1 17 -2 13 -5z m-211 -33 c-8 -13 21 -34 35 -25 8 4 9 3 5 -4 -9 -16 -47 -36
-44 -23 2 5 -1 9 -7 10 -5 1 -10 -7 -10 -16 1 -11 7 -17 15 -15 8 2 11 0 7 -5
-5 -4 -12 -8 -15 -8 -4 0 -13 -4 -20 -9 -11 -6 -11 -11 0 -24 11 -15 11 -15
-3 -5 -9 7 -19 10 -23 6 -3 -4 -13 -8 -20 -9 -20 -3 -13 22 15 52 13 14 23 29
22 32 -2 4 1 7 6 7 11 0 26 13 27 26 2 16 4 19 10 19 3 0 3 -4 0 -9z m38 1 c3
-5 -1 -9 -9 -9 -8 0 -12 4 -9 9 3 4 7 8 9 8 2 0 6 -4 9 -8z m133 -7 c0 -8 -4
-12 -9 -9 -5 3 -6 10 -3 15 9 13 12 11 12 -6z m27 -74 c3 -4 -6 -6 -19 -3 -14
2 -25 6 -25 8 0 8 39 4 44 -5z m-77 -7 c-4 -4 3 -21 14 -38 l21 -31 -26 30
c-22 26 -30 27 -28 4 1 -3 -6 -6 -14 -6 -10 0 -9 7 8 24 12 13 24 23 26 23 3
0 2 -3 -1 -6z m-130 -36 c-3 -8 -6 -5 -6 6 -1 11 2 17 5 13 3 -3 4 -12 1 -19z
m-1162 -26 c-3 -3 0 -11 6 -19 9 -10 15 -10 25 -2 8 6 12 15 9 18 -2 4 2 8 10
8 8 0 13 -3 10 -5 -3 -3 0 -11 6 -18 7 -9 6 -12 -8 -9 -10 1 -23 -2 -30 -7 -7
-6 -14 -5 -18 2 -5 8 -11 8 -21 -1 -7 -6 -11 -16 -7 -22 3 -6 1 -7 -6 -3 -6 4
-9 11 -6 16 6 10 -20 32 -28 23 -4 -3 -7 -1 -7 5 0 15 17 16 25 2 4 -6 11 -8
16 -4 5 3 7 9 5 13 -3 4 1 8 9 8 8 0 13 -3 10 -5z m161 -16 c2 -16 1 -16 -14
-3 -9 9 -30 17 -47 20 -19 3 -13 4 14 3 34 -1 45 -6 47 -20z m39 3 c0 -5 5 -9
10 -8 6 1 9 5 8 9 -1 5 5 7 15 6 9 -2 15 -7 12 -12 -3 -5 -9 -8 -13 -6 -5 1
-11 -7 -14 -18 -3 -11 -9 -20 -14 -20 -5 0 -6 6 -3 13 3 8 -2 20 -10 27 -9 7
-13 17 -10 22 7 10 19 2 19 -13z m1099 -30 c-17 -19 -9 -28 19 -23 11 1 16 0
12 -4 -11 -11 -54 -9 -52 2 1 6 -3 10 -9 9 -6 -1 -11 4 -11 11 0 8 7 13 16 11
24 -4 33 5 20 21 -6 7 -16 11 -22 7 -6 -4 -7 -1 -3 6 6 9 13 8 27 -5 18 -16
18 -19 3 -35z m296 26 c13 -14 21 -25 18 -25 -2 0 -15 11 -28 25 -13 14 -21
25 -18 25 2 0 15 -11 28 -25z m-1250 0 c11 -13 10 -14 -4 -9 -9 3 -16 10 -16
15 0 13 6 11 20 -6z m716 -12 c27 -14 43 -20 37 -13 -41 44 16 23 100 -36 26
-19 51 -34 56 -34 5 0 14 -7 21 -15 7 -8 17 -12 24 -8 6 3 8 3 4 -2 -8 -9 30
-62 82 -116 19 -19 44 -51 55 -70 49 -84 72 -129 60 -119 -21 17 -27 -17 -9
-46 19 -28 26 -31 17 -7 -4 11 -3 14 5 9 8 -5 10 -2 6 8 -11 30 11 16 28 -16
31 -61 61 -139 55 -144 -3 -4 3 -22 13 -41 18 -34 18 -63 -1 -63 -4 0 -6 -7
-3 -15 4 -8 4 -15 1 -15 -6 0 -42 70 -42 80 0 15 -51 100 -60 100 -19 1 -77
58 -70 69 3 6 11 9 16 5 5 -3 7 -9 4 -14 -3 -4 2 -10 10 -14 14 -5 17 -2 19
25 1 15 -49 20 -81 8 -19 -7 -43 -2 -106 20 -94 33 -140 53 -147 62 -10 14
-96 12 -130 -3 -22 -10 -39 -12 -47 -6 -7 5 -14 5 -18 -2 -3 -5 -11 -10 -17
-10 -7 0 -6 6 2 15 18 21 7 19 -20 -5 -19 -17 -37 -20 -104 -20 -74 1 -79 2
-61 16 20 15 136 54 162 54 8 0 21 7 29 15 9 8 31 15 50 15 19 0 33 4 30 9 -4
5 -24 4 -48 -2 -24 -5 -61 -11 -83 -11 -39 -1 -40 0 -43 35 -3 34 -2 35 50 52
53 17 54 17 55 59 2 61 5 78 14 72 5 -2 15 9 24 25 11 22 12 29 3 26 -7 -3
-19 7 -25 22 -11 22 -10 31 2 50 19 29 22 29 81 -4z m101 21 c-3 -3 -12 -4
-19 -1 -8 3 -5 6 6 6 11 1 17 -2 13 -5z m-1242 -14 c-3 -5 -10 -10 -16 -10 -5
0 -9 5 -9 10 0 6 7 10 16 10 8 0 12 -4 9 -10z m358 -10 c3 -11 1 -18 -4 -14
-5 3 -9 12 -9 20 0 20 7 17 13 -6z m646 -69 c-28 -36 -53 -55 -63 -48 -1 1
-11 -5 -21 -13 -17 -14 -18 -14 -5 10 9 17 10 25 1 28 -17 6 -13 21 7 21 57 0
108 29 74 43 -16 6 -16 7 1 7 9 1 17 7 17 14 0 6 5 4 11 -5 8 -14 3 -26 -22
-57z m431 61 c0 -5 -7 -9 -15 -9 -8 0 -12 4 -9 9 3 4 9 8 15 8 5 0 9 -4 9 -8z
m-1523 -8 c-3 -3 -12 -4 -19 -1 -8 3 -5 6 6 6 11 1 17 -2 13 -5z m293 -4 c0
-5 -5 -10 -11 -10 -5 0 -7 5 -4 10 3 6 8 10 11 10 2 0 4 -4 4 -10z m125 0 c3
-5 2 -10 -4 -10 -5 0 -13 5 -16 10 -3 6 -2 10 4 10 5 0 13 -4 16 -10z m85 -2
c0 -3 -9 -6 -20 -5 -11 1 -20 5 -20 9 0 3 9 6 20 5 11 -1 20 -5 20 -9z m536
-3 c13 -12 12 -15 -4 -24 -11 -6 -23 -7 -27 -3 -9 9 -35 -27 -29 -42 3 -7 -7
-23 -21 -36 -14 -13 -25 -29 -25 -37 0 -16 -7 -17 -24 -1 -9 9 -11 21 -5 41 5
16 4 25 -2 22 -5 -4 -9 -15 -9 -25 0 -11 -14 -34 -30 -52 -22 -24 -29 -28 -24
-13 5 18 3 17 -15 -4 -21 -23 -21 -23 -21 -2 l0 22 -22 -21 c-12 -11 -28 -20
-35 -20 -7 0 -13 -4 -13 -8 0 -12 -32 -11 -47 0 -8 6 -10 4 -6 -10 3 -12 -3
-27 -16 -39 l-21 -20 24 -13 c13 -7 26 -20 29 -30 4 -14 -7 -19 -60 -29 -35
-6 -68 -9 -73 -6 -19 12 -10 -25 11 -46 l22 -22 -7 29 c-7 27 -6 28 7 9 8 -11
17 -29 20 -40 4 -11 4 -4 1 16 -4 36 -4 37 38 47 30 8 46 8 55 0 21 -17 15
-26 -39 -57 -39 -22 -55 -27 -65 -19 -10 8 -13 7 -13 -5 0 -15 -64 -70 -72
-62 -6 6 -75 -62 -107 -104 -13 -18 -26 -30 -28 -27 -3 3 11 28 32 56 20 27
31 50 24 50 -7 0 -10 3 -6 6 3 3 9 6 14 6 4 0 14 4 21 10 8 8 12 7 12 -3 1
-10 5 -8 15 5 12 16 12 21 -1 42 -9 13 -13 28 -9 34 3 5 2 10 -3 10 -6 0 -12
-7 -16 -15 -3 -8 -1 -15 3 -15 5 0 8 -8 6 -17 -2 -10 -4 -22 -4 -27 -1 -5 -4
-6 -8 -3 -3 4 -12 2 -20 -4 -19 -16 -16 1 4 23 9 10 14 21 11 24 -3 3 -25 -23
-48 -58 -24 -35 -37 -57 -28 -51 8 7 19 9 23 5 5 -4 5 -1 1 6 -10 17 4 38 15
21 8 -14 -8 -55 -18 -45 -4 3 -15 -1 -25 -11 -13 -12 -18 -13 -18 -3 0 7 -12
-3 -27 -23 -16 -20 -33 -34 -40 -32 -7 2 -10 -2 -6 -11 3 -9 -2 -14 -15 -14
-11 0 -28 -3 -38 -7 -12 -4 -15 -3 -10 5 10 17 -5 15 -18 -2 -6 -8 -32 -18
-58 -21 -46 -7 -47 -6 -43 16 3 13 7 34 9 47 9 44 19 67 40 92 l21 25 -22 -19
c-27 -22 -30 -10 -6 23 10 15 11 21 3 16 -10 -6 -12 -2 -8 16 3 13 14 61 24
107 l18 83 69 52 c38 29 80 59 93 67 13 8 24 21 24 29 0 8 3 11 7 8 3 -4 22 5
41 19 65 50 215 94 253 74 23 -13 24 -38 5 -85 -15 -35 -47 -48 -61 -25 -9 14
-37 12 -76 -4 l-34 -14 58 0 c32 0 63 -4 70 -11 15 -15 30 -14 21 2 -9 13 27
-12 38 -28 8 -11 37 22 38 44 0 11 -5 10 -20 -4 -19 -18 -20 -17 -20 4 0 13 4
20 11 16 6 -4 5 2 -2 13 -10 16 -10 23 0 36 11 13 17 13 57 -7 24 -11 44 -25
44 -30 0 -4 5 -5 10 -2 17 11 11 23 -15 29 -31 8 -42 31 -25 51 15 18 65 21
54 3 -5 -8 -2 -9 9 -5 9 3 19 2 22 -3 11 -18 25 -10 25 14 0 30 36 41 67 21
20 -14 22 -13 16 1 -12 31 46 46 73 19z m-996 -5 c0 -5 -7 -7 -15 -4 -8 4 -15
8 -15 10 0 2 7 4 15 4 8 0 15 -4 15 -10z m66 -25 c-20 -15 -36 -19 -36 -10 0
5 38 23 50 24 3 0 -4 -6 -14 -14z m-50 -8 c4 -4 -7 -7 -24 -7 -17 0 -33 4 -36
8 -6 10 51 9 60 -1z m1094 -29 c-1 -9 -5 -7 -14 4 -7 10 -16 15 -19 11 -4 -3
-7 -2 -7 4 0 18 12 22 26 8 8 -7 14 -20 14 -27z m-960 3 c0 -4 -6 -8 -14 -8
-8 0 -12 6 -9 14 5 13 23 9 23 -6z m1305 -1 c10 -11 16 -20 13 -20 -3 0 -13 9
-23 20 -10 11 -16 20 -13 20 3 0 13 -9 23 -20z m43 3 c-6 -7 -12 -13 -13 -13
-2 0 -5 6 -8 13 -3 7 3 13 14 13 13 0 15 -3 7 -13z m-1414 -10 c-5 -17 -5 -17
9 0 14 17 15 17 19 -1 5 -16 1 -18 -30 -15 -20 2 -38 6 -41 8 -3 4 25 18 46
24 1 1 0 -7 -3 -16z m989 -15 c-13 -12 -25 -19 -29 -16 -9 9 18 37 36 38 10 0
8 -6 -7 -22z m427 -8 c0 -5 -4 -10 -10 -10 -5 0 -10 5 -10 10 0 6 5 10 10 10
6 0 10 -4 10 -10z m-1280 -20 c-8 -5 -18 -6 -22 -4 -4 3 -8 0 -8 -6 0 -6 -5
-8 -11 -4 -8 4 -7 9 2 15 7 4 16 6 20 3 4 -2 11 1 14 7 4 5 10 8 13 4 4 -3 0
-10 -8 -15z m-155 0 c-3 -5 -11 -10 -16 -10 -6 0 -7 5 -4 10 3 6 11 10 16 10
6 0 7 -4 4 -10z m35 -1 c0 -6 6 -9 14 -6 10 4 14 0 13 -14 -2 -24 -8 -24 -30
1 -20 23 -21 30 -7 30 6 0 10 -5 10 -11z m57 -19 c1 -11 -2 -20 -8 -20 -10 0
-12 23 -2 33 9 9 9 10 10 -13z m1594 7 c18 -13 39 -50 39 -66 0 -18 -30 -12
-36 7 -3 9 -12 29 -20 45 -16 29 -9 34 17 14z m-1731 -12 c8 5 11 4 7 -2 -8
-12 -66 -23 -84 -16 -20 8 -15 25 5 19 9 -3 24 -1 32 4 9 6 17 5 21 -2 4 -6
12 -7 19 -3z m284 -7 c-3 -5 -12 -7 -20 -4 -8 3 -14 -1 -14 -9 0 -18 -16 -20
-26 -3 -5 7 -3 8 6 3 10 -6 12 -4 7 8 -3 9 -1 18 6 20 19 6 47 -4 41 -15z
m636 12 c0 -5 -5 -10 -11 -10 -5 0 -7 5 -4 10 3 6 8 10 11 10 2 0 4 -4 4 -10z
m120 -3 c0 -18 -55 -57 -88 -63 -15 -3 -35 -14 -45 -25 -22 -24 -24 -24 -22 1
1 11 12 28 24 37 18 12 20 17 10 24 -10 6 -7 8 8 7 12 -1 19 -7 16 -15 -7 -18
7 -16 29 4 14 13 51 36 66 42 1 1 2 -5 2 -12z m430 3 c0 -5 -2 -10 -4 -10 -3
0 -8 5 -11 10 -3 6 -1 10 4 10 6 0 11 -4 11 -10z m-1420 -14 c0 -3 -4 -8 -10
-11 -5 -3 -10 -1 -10 4 0 6 5 11 10 11 6 0 10 -2 10 -4z m843 -23 c4 -3 0 -14
-9 -24 -17 -19 -54 -14 -54 8 0 8 4 12 8 9 4 -2 14 -1 22 5 18 11 25 11 33 2z
m-703 -12 c0 -4 -13 -7 -30 -7 -16 0 -30 3 -30 6 0 4 14 7 30 8 17 0 30 -3 30
-7z m35 -9 c-3 -3 -11 0 -18 7 -9 10 -8 11 6 5 10 -3 15 -9 12 -12z m549 -38
c-10 -14 -22 -25 -26 -23 -3 2 -18 -7 -32 -20 -15 -14 -35 -26 -46 -28 -25 -4
-45 31 -31 55 6 9 11 11 11 5 0 -7 4 -13 10 -13 5 0 7 8 3 18 -5 13 -3 14 6 6
10 -9 9 -18 -5 -40 -18 -28 -18 -29 0 -14 11 8 21 14 23 12 3 -2 8 0 11 4 4 4
1 4 -7 -1 -10 -6 -12 -4 -7 4 5 7 10 10 13 7 8 -8 35 23 29 32 -3 5 2 9 10 9
9 0 13 -6 9 -16 -3 -9 5 -4 18 10 28 33 37 27 11 -7z m-650 5 c-6 -11 -24 -2
-24 11 0 5 7 7 15 4 8 -4 12 -10 9 -15z m31 12 c3 -5 1 -12 -5 -16 -5 -3 -10
1 -10 9 0 18 6 21 15 7z m-45 -53 c0 -4 -7 -5 -15 -2 -8 4 -15 16 -15 28 1 21
1 21 15 2 8 -11 15 -23 15 -28z m686 25 c-6 -15 -4 -15 14 2 22 20 28 8 8 -14
-10 -11 -10 -13 0 -7 6 4 12 4 12 -1 0 -12 -18 -38 -27 -39 -10 0 -73 -14 -96
-21 -16 -4 -17 -2 -8 16 6 11 17 18 25 15 7 -3 25 11 40 31 29 38 42 45 32 18z
m-836 -20 c0 -6 7 -16 16 -21 11 -6 13 -11 5 -16 -6 -4 -11 -2 -11 5 0 8 -5 7
-16 -2 -15 -12 -16 -11 -10 9 6 16 3 22 -8 22 -9 0 -16 4 -16 9 0 6 9 9 20 8
11 -1 20 -7 20 -14z m110 -1 c0 -5 -7 -9 -15 -9 -8 0 -12 4 -9 9 3 4 9 8 15 8
5 0 9 -4 9 -8z m785 -21 c-3 -6 -11 -11 -17 -11 -6 0 -6 6 2 15 14 17 26 13
15 -4z m-790 -11 c10 -16 -14 -50 -35 -50 -20 0 -26 11 -13 23 3 4 12 2 18 -3
9 -8 14 -6 18 4 4 9 1 18 -5 22 -7 5 -8 2 -3 -6 6 -10 4 -12 -9 -7 -10 4 -21
7 -24 8 -8 0 29 17 40 18 4 1 10 -3 13 -9z m-70 -59 c-3 -6 -11 -8 -17 -5 -6
4 -5 9 3 15 16 10 23 4 14 -10z m31 -23 c-9 -5 -20 -7 -25 -3 -5 3 -12 1 -16
-5 -7 -12 -25 -4 -25 12 0 5 6 8 13 5 6 -2 21 -1 32 3 26 10 43 0 21 -12z
m1138 -23 c3 -8 0 -14 -6 -12 -7 1 -12 -5 -13 -13 0 -20 -29 -24 -44 -6 -9 11
-9 16 0 22 7 4 9 3 5 -4 -14 -23 14 -21 31 2 22 30 20 29 27 11z m-1204 -5 c0
-5 -5 -10 -11 -10 -5 0 -7 5 -4 10 3 6 8 10 11 10 2 0 4 -4 4 -10z m43 -7 c-7
-2 -19 -2 -25 0 -7 3 -2 5 12 5 14 0 19 -2 13 -5z m1237 -18 c19 -21 20 -23 4
-36 -14 -11 -18 -11 -21 -1 -3 6 -9 10 -14 6 -5 -3 -8 0 -7 7 2 7 -2 13 -9 14
-19 0 -28 15 -9 15 9 0 15 4 12 8 -11 18 25 7 44 -13z m-1288 -2 c-6 -2 -9
-10 -6 -15 4 -7 2 -8 -5 -4 -13 9 -5 26 12 25 9 0 8 -2 -1 -6z m53 -11 c-3 -3
-14 -6 -25 -7 -15 -1 -17 1 -9 11 6 7 17 10 25 7 8 -3 12 -8 9 -11z m665 1 c0
-2 -8 -3 -17 -1 -11 2 -17 -2 -15 -10 1 -8 -2 -11 -8 -7 -16 10 8 35 26 28 8
-3 14 -7 14 -10z m116 5 c4 4 4 2 1 -5 -7 -12 -44 -7 -53 8 -3 5 6 5 19 0 14
-6 28 -7 33 -3z m54 -3 c-7 -8 -18 -15 -24 -15 -6 0 -2 7 8 15 25 19 32 19 16
0z m117 -2 c0 -9 -4 -10 -14 -2 -7 6 -13 12 -13 14 0 1 6 2 13 2 8 0 14 -6 14
-14z m135 -11 c8 -6 17 -10 20 -7 3 3 10 -1 17 -8 9 -11 8 -17 -4 -27 -13 -11
-16 -11 -13 1 2 10 -6 14 -27 13 -25 0 -31 4 -31 22 0 23 15 26 38 6z m-486
-7 c-1 -8 -5 -17 -8 -21 -5 -4 -4 16 1 34 3 9 9 -1 7 -13z m1244 5 c0 -5 -5
-10 -11 -10 -5 0 -7 5 -4 10 3 6 8 10 11 10 2 0 4 -4 4 -10z m-914 -12 c5 4 5
3 1 -2 -12 -15 -34 -15 -34 0 0 9 4 11 12 4 7 -5 16 -6 21 -2z m244 -2 c-7 -7
-13 -7 -20 0 -6 6 -3 10 10 10 13 0 16 -4 10 -10z m-1220 -6 c0 -5 -8 -10 -17
-10 -15 0 -16 2 -3 10 19 12 20 12 20 0z m714 2 c3 -5 -1 -9 -9 -9 -8 0 -12 4
-9 9 3 4 7 8 9 8 2 0 6 -4 9 -8z m346 4 c0 -2 -9 -6 -20 -9 -11 -3 -18 -1 -14
4 5 9 34 13 34 5z m-580 -10 c0 -3 -4 -8 -10 -11 -5 -3 -10 -1 -10 4 0 6 5 11
10 11 6 0 10 -2 10 -4z m835 -17 c-4 -5 -1 -9 5 -9 6 0 8 -5 4 -12 -6 -9 -9
-9 -12 0 -2 7 -8 12 -13 12 -6 0 -8 -4 -5 -9 9 -14 -22 -7 -37 9 -9 10 -9 11
1 6 17 -10 54 3 46 16 -4 7 -2 8 5 4 6 -4 9 -12 6 -17z m609 3 c2 -4 -7 -8
-22 -9 -24 -2 -24 -1 -7 7 11 5 21 9 22 9 1 1 4 -3 7 -7z m-727 -19 c-8 -7 11
-33 24 -33 11 0 7 22 -6 33 -6 5 -4 7 5 4 8 -2 15 -10 15 -18 0 -8 7 -14 15
-14 8 0 16 -6 16 -12 1 -7 2 -16 3 -20 0 -3 13 4 28 18 14 13 23 19 20 13 -4
-6 5 -22 18 -34 26 -25 32 -40 15 -40 -5 0 -9 6 -7 13 1 6 -4 11 -11 9 -8 -1
-11 2 -8 7 3 5 -1 14 -9 21 -8 7 -16 10 -16 6 -5 -25 -3 -34 15 -53 11 -13 15
-23 10 -23 -5 0 -1 -7 9 -15 15 -11 17 -17 8 -32 -8 -12 -11 -13 -9 -3 2 8 -2
15 -7 15 -12 0 -13 -26 -1 -43 7 -9 5 -12 -4 -10 -9 2 -14 -6 -15 -19 0 -12
-3 -25 -7 -29 -4 -4 -4 -12 -1 -18 10 -16 11 -56 2 -62 -5 -2 -7 -10 -5 -17 1
-7 1 -9 -1 -4 -3 4 -9 5 -14 1 -5 -3 -8 0 -7 8 2 7 -3 12 -10 10 -8 -1 -11 2
-8 7 4 5 2 13 -4 16 -8 5 -7 11 1 21 9 11 9 14 0 14 -7 0 -9 5 -6 10 3 6 2 10
-4 10 -10 0 -9 39 2 57 4 7 -2 14 -14 18 -20 7 -20 8 -5 17 9 5 14 14 11 19
-4 5 -12 6 -18 3 -9 -5 -8 -3 0 6 9 10 10 17 2 27 -13 15 -33 18 -24 4 3 -5 1
-12 -5 -16 -6 -4 -8 -10 -5 -15 3 -4 -2 -13 -10 -20 -7 -6 -13 -17 -11 -23 1
-7 1 -9 -1 -4 -3 4 -10 4 -16 0 -9 -5 -9 -3 -1 8 13 17 12 40 -1 37 -5 -2 -9
-6 -8 -10 3 -8 -24 -4 -33 5 -4 4 -13 2 -19 -3 -9 -7 -16 -6 -24 4 -9 11 -7
13 9 12 11 0 20 4 20 9 0 6 -9 10 -19 9 -10 -1 -18 5 -18 12 0 10 4 11 13 3 7
-6 14 -6 18 -1 8 14 -15 30 -41 27 -12 -1 -20 2 -17 7 4 5 12 7 19 4 8 -3 19
2 25 10 12 13 6 19 -15 14 -5 -1 -6 2 -2 6 10 11 38 14 32 4 -7 -12 17 -26 45
-26 19 1 25 6 24 23 -1 13 2 20 6 18 4 -3 13 2 20 10 7 8 15 15 18 15 3 0 2
-3 -1 -7z m735 -14 c2 -2 1 -3 -1 -2 -2 2 -9 -2 -16 -7 -8 -7 -12 -5 -12 4 0
12 22 16 29 5z m-2127 -10 c-4 -6 2 -9 17 -8 56 5 70 0 63 -22 -5 -16 -3 -20
6 -17 8 3 24 1 36 -3 13 -5 24 -4 27 2 2 5 3 4 2 -3 -2 -8 -19 -13 -47 -13
-57 0 -61 2 -48 27 9 17 9 19 -7 10 -9 -5 -26 -7 -37 -4 -14 3 -18 1 -13 -6 4
-7 13 -12 21 -12 8 0 17 -5 20 -10 4 -7 -4 -10 -21 -7 -23 3 -28 9 -30 33 -2
29 3 44 12 44 3 0 2 -5 -1 -11z m2035 3 c-17 -8 -19 -20 -5 -42 7 -13 6 -13
-7 -2 -13 10 -16 26 -9 50 1 1 9 2 19 1 14 0 14 -2 2 -7z m-1774 -11 c-4 -5 0
-12 6 -15 7 -3 2 -3 -11 0 -13 4 -21 2 -18 -3 4 -5 0 -10 -8 -10 -22 0 -18 12
8 25 28 14 29 14 23 3z m797 -8 c-7 -2 -19 -2 -25 0 -7 3 -2 5 12 5 14 0 19
-2 13 -5z m1073 -21 c-3 -3 0 -12 6 -21 10 -13 10 -14 -2 -4 -16 15 -23 46 -8
37 5 -3 7 -9 4 -12z m-506 -2 c3 -1 8 -2 12 -2 3 1 12 -5 19 -14 10 -13 15
-12 38 8 l26 23 -20 -24 -20 -23 21 3 c11 2 21 0 22 -6 1 -5 -8 -9 -20 -7 -15
3 -18 0 -12 -10 6 -10 4 -10 -9 1 -9 7 -18 11 -18 7 -1 -3 -2 -10 -3 -15 0 -5
-5 -13 -9 -18 -5 -4 -7 -3 -5 4 2 6 -1 11 -7 12 -5 1 -10 -4 -10 -11 0 -6 -8
-12 -17 -14 -21 -3 -24 16 -6 34 9 9 9 12 -3 12 -8 0 -20 -5 -27 -12 -9 -9
-12 -9 -12 0 0 7 5 12 12 12 6 0 4 8 -6 19 -17 18 -17 19 1 23 16 4 40 3 53
-2z m-1067 -31 c-10 -17 -30 -36 -45 -41 -16 -6 -25 -15 -21 -21 3 -6 1 -7 -5
-3 -7 4 -14 -3 -18 -18 -5 -23 -44 -68 -44 -51 0 4 -7 1 -17 -6 -15 -13 -15
-12 -4 9 7 13 10 26 7 29 -3 3 -10 -6 -15 -21 -10 -26 -31 -36 -31 -15 0 5 -4
7 -10 4 -5 -3 -10 -3 -10 2 0 11 20 40 20 29 0 -5 6 -4 13 2 6 5 27 13 44 17
21 4 47 23 74 53 26 30 37 38 30 22 -10 -21 -7 -19 15 8 34 41 40 41 17 1z
m457 23 c0 -5 -7 -9 -15 -9 -8 0 -12 4 -9 9 3 4 9 8 15 8 5 0 9 -4 9 -8z m186
-4 c4 -4 -3 -6 -14 -3 -21 4 -37 -9 -37 -30 0 -5 -12 -10 -27 -11 -15 -1 -25
2 -23 7 3 4 13 5 23 2 12 -3 19 1 19 11 0 14 -17 21 -40 17 -5 -1 -6 2 -4 6 6
10 93 10 103 1z m-960 -13 c-4 -27 -36 -50 -36 -25 0 6 7 10 16 10 8 0 13 4
10 9 -3 5 -16 7 -29 4 -17 -4 -19 -2 -8 5 19 13 49 11 47 -3z m1558 -3 c3 -5
-1 -9 -9 -9 -8 0 -12 4 -9 9 3 4 7 8 9 8 2 0 6 -4 9 -8z m236 4 c0 -2 -8 -10
-17 -17 -16 -13 -17 -12 -4 4 13 16 21 21 21 13z m135 -5 c3 -5 2 -12 -3 -15
-5 -3 -9 1 -9 9 0 17 3 19 12 6z m-2110 -11 c10 17 25 11 25 -10 0 -11 -3 -19
-7 -17 -5 1 -9 -2 -10 -8 0 -5 3 -9 7 -8 5 1 7 -3 6 -10 -2 -15 -21 -21 -22
-7 -1 6 -3 12 -4 15 -1 3 -3 10 -4 17 -1 14 -34 20 -42 7 -3 -5 -9 -7 -14 -4
-5 3 -12 0 -16 -6 -5 -8 -3 -9 6 -4 9 5 11 4 6 -4 -4 -6 -11 -9 -16 -6 -12 7
-5 40 8 40 6 0 13 3 17 7 4 4 18 3 31 -2 14 -6 26 -6 29 0z m1134 -3 c8 -10 7
-14 -2 -14 -8 0 -14 6 -14 14 0 7 1 13 2 13 2 0 8 -6 14 -13z m32 -10 c-10 -9
-11 -8 -5 6 3 10 9 15 12 12 3 -3 0 -11 -7 -18z m-1079 -8 c-2 -8 -9 -18 -15
-22 -7 -5 -2 -7 13 -3 24 5 24 4 6 -9 -11 -8 -23 -15 -27 -15 -9 0 -6 20 5 39
6 10 4 12 -11 7 -13 -4 -20 -2 -20 8 0 9 9 13 26 11 16 -2 25 -8 23 -16z m118
7 c0 -3 -4 -8 -10 -11 -5 -3 -10 -1 -10 4 0 6 5 11 10 11 6 0 10 -2 10 -4z
m1509 -10 c8 -10 9 -16 1 -21 -6 -4 -9 -2 -8 3 2 6 -1 10 -7 10 -5 0 -9 -3 -8
-7 1 -4 -7 -7 -18 -7 -19 0 -18 1 3 18 28 21 23 21 37 4z m-912 -13 c0 -9 -4
-10 -14 -2 -7 6 -13 12 -13 14 0 1 6 2 13 2 8 0 14 -6 14 -14z m1004 -6 c16
-21 31 -64 43 -119 6 -24 3 -28 -16 -27 -13 0 -17 3 -11 6 14 5 10 33 -14 101
-8 23 -19 42 -24 42 -5 0 -9 5 -9 10 0 17 14 11 31 -13z m-1615 -1 c18 5 18 5
1 -6 -10 -7 -21 -9 -24 -6 -4 3 -13 0 -22 -7 -14 -10 -14 -10 -4 4 7 9 9 20 5
25 -4 4 0 3 9 -4 9 -7 25 -10 35 -6z m932 1 c-7 -9 25 -36 36 -30 6 3 7 2 3
-2 -9 -11 -37 -16 -36 -7 1 4 0 9 -1 12 -5 14 -8 41 -3 37 2 -3 3 -7 1 -10z
m507 3 c-3 -5 -12 -10 -18 -10 -7 0 -6 4 3 10 19 12 23 12 15 0z m-1041 -9
c-8 -8 -34 -10 -38 -2 -3 4 6 7 19 7 14 0 22 -2 19 -5z m346 5 c0 -2 -9 -6
-20 -9 -11 -3 -18 -1 -14 4 5 9 34 13 34 5z m830 -11 c0 4 7 2 15 -5 8 -7 13
-16 10 -20 -3 -5 -1 -11 5 -15 5 -3 10 -17 10 -30 0 -19 -4 -22 -22 -17 -16 4
-19 2 -13 -8 5 -8 4 -11 -3 -7 -5 4 -8 17 -4 30 5 22 5 22 -17 3 -21 -19 -22
-19 -35 -1 -11 15 -10 21 6 37 10 10 18 25 18 34 0 14 3 14 15 4 8 -7 15 -9
15 -5z m-121 -19 c11 -14 6 -15 -27 -7 -4 1 8 21 12 21 2 0 9 -6 15 -14z m71
-7 c0 -4 -8 -7 -18 -6 -10 0 -19 6 -19 13 0 6 9 9 19 6 10 -2 18 -8 18 -13z
m-1206 2 c-3 -4 -9 -6 -12 -6 -4 0 -12 -3 -18 -7 -6 -4 -11 -1 -11 5 0 7 11
13 23 13 13 0 21 -2 18 -5z m124 -4 c9 -10 6 -13 -13 -13 -19 0 -22 3 -13 13
6 7 12 13 13 13 1 0 7 -6 13 -13z m566 5 c3 -5 -1 -9 -9 -9 -8 0 -12 4 -9 9 3
4 7 8 9 8 2 0 6 -4 9 -8z m293 -12 c-1 -11 -5 -20 -9 -20 -10 0 -10 4 -2 24 8
22 13 20 11 -4z m-1297 6 c0 -3 -4 -8 -10 -11 -5 -3 -10 -1 -10 4 0 6 5 11 10
11 6 0 10 -2 10 -4z m348 -7 c-2 -3 4 -14 12 -25 14 -18 14 -18 -2 -5 -17 12
-23 9 -19 -12 1 -5 -3 -6 -8 -3 -5 3 -8 14 -6 24 2 9 4 21 4 25 1 5 6 7 12 5
6 -2 9 -6 7 -9z m312 6 c0 -7 -30 -13 -34 -7 -3 4 4 9 15 9 10 1 19 0 19 -2z
m87 -1 c-3 -3 -12 -4 -19 -1 -8 3 -5 6 6 6 11 1 17 -2 13 -5z m-697 -27 c0 -6
6 -2 14 9 19 25 31 12 16 -16 -7 -13 -17 -19 -26 -16 -9 4 -18 -3 -24 -17 -5
-12 -9 -16 -9 -9 -1 7 4 22 9 33 7 13 7 19 0 19 -5 0 -10 4 -10 10 0 5 7 7 15
4 8 -4 15 -11 15 -17z m1355 -7 c-6 -10 20 -32 28 -23 4 3 2 12 -4 19 -7 8 -6
14 2 20 7 4 9 3 6 -3 -7 -11 16 -37 25 -28 2 3 5 -1 5 -9 0 -8 -8 -11 -21 -8
-19 5 -20 4 -7 -12 12 -14 12 -17 1 -14 -8 2 -14 -2 -15 -9 0 -6 -3 -14 -7
-17 -5 -3 -6 -3 -3 1 3 3 -2 15 -12 25 -9 10 -13 18 -8 18 4 0 2 6 -4 14 -8
10 -9 16 -1 21 6 3 8 11 4 16 -4 6 -11 6 -20 -2 -9 -7 -14 -8 -14 -1 0 6 6 12
13 15 14 5 39 -12 32 -23z m501 1 c-9 -10 -14 -20 -11 -23 3 -2 -2 -5 -10 -5
-12 0 -11 5 5 22 11 12 17 25 13 30 -5 4 -2 5 5 1 11 -7 10 -11 -2 -25z m40
14 c-1 -8 -5 -17 -8 -21 -5 -4 -4 16 1 34 3 9 9 -1 7 -13z m-929 -10 c0 -8 -4
-12 -9 -9 -5 3 -6 10 -3 15 9 13 12 11 12 -6z m149 -63 l4 -37 -14 35 c-7 19
-11 38 -9 43 2 4 -1 7 -6 7 -6 0 -11 8 -11 17 0 32 31 -24 36 -65z m-1171 46
c-3 -8 -12 -15 -20 -15 -12 0 -11 4 3 17 20 20 25 19 17 -2z m440 13 c3 -5 2
-12 -3 -15 -5 -3 -9 1 -9 9 0 17 3 19 12 6z m619 1 c3 -5 -1 -9 -9 -9 -8 0
-12 4 -9 9 3 4 7 8 9 8 2 0 6 -4 9 -8z m66 -2 c0 -5 -2 -10 -4 -10 -3 0 -8 5
-11 10 -3 6 -1 10 4 10 6 0 11 -4 11 -10z m235 -16 c9 -15 12 -23 6 -20 -11 7
-35 46 -28 46 3 0 12 -12 22 -26z m-1051 1 c-4 -8 1 -17 10 -21 19 -7 22 -25
4 -21 -7 1 -12 -4 -10 -10 1 -7 -4 -12 -10 -10 -7 1 -12 -4 -10 -11 1 -8 -2
-11 -9 -6 -8 4 -9 3 -5 -5 4 -6 13 -8 19 -4 7 4 17 8 22 8 6 1 9 7 7 14 -1 7
2 10 8 6 8 -5 7 -11 -1 -21 -9 -11 -8 -14 2 -14 9 0 8 -4 -3 -12 -9 -7 -19
-20 -22 -28 -4 -9 -5 -6 -2 6 2 11 -2 21 -8 21 -6 0 -10 -16 -10 -38 1 -24 -2
-38 -10 -36 -6 1 -10 -6 -10 -15 1 -10 -3 -18 -8 -18 -6 0 -8 -7 -5 -15 4 -8
3 -17 -2 -19 -4 -3 -7 16 -6 42 3 64 3 64 18 56 6 -4 3 3 -8 15 -11 12 -15 22
-10 21 21 -5 27 1 16 14 -8 10 -9 16 -1 21 6 3 7 11 4 17 -4 6 -2 8 3 5 6 -4
16 0 22 7 8 10 9 16 1 21 -7 4 -7 12 0 26 13 22 22 26 14 4z m1251 -20 c-1
-14 -5 -28 -10 -32 -4 -5 -5 -3 -2 4 4 6 1 13 -5 16 -10 3 -10 7 1 20 17 21
17 22 16 -8z m-1400 -39 c-17 -39 -21 -56 -13 -64 9 -9 7 -16 -5 -29 -8 -10
-21 -31 -27 -47 -6 -16 -13 -26 -17 -22 -3 3 -15 -13 -25 -36 -23 -51 -34 -45
-13 8 14 35 14 37 0 20 -11 -15 -15 -16 -16 -5 -1 8 -2 29 -4 48 -2 19 3 49
11 67 17 40 17 47 3 38 -7 -4 -10 -1 -7 7 3 8 10 15 16 15 7 1 15 3 20 4 4 1
10 2 15 1 4 0 7 5 7 13 0 8 5 18 12 22 11 7 10 -2 -6 -51 -4 -11 2 -3 14 18
11 21 25 35 30 32 5 -3 11 -1 15 5 16 27 12 5 -10 -44z m920 35 c-1 -9 2 -21
7 -28 5 -7 5 -14 -2 -18 -6 -3 -8 -10 -5 -15 3 -5 2 -11 -3 -14 -4 -3 -8 12
-8 32 1 20 -3 38 -9 40 -5 1 -10 -2 -10 -7 0 -5 -3 -12 -7 -16 -8 -8 -5 16 4
31 11 17 36 13 33 -5z m56 2 c13 -16 12 -17 -3 -4 -10 7 -18 15 -18 17 0 8 8
3 21 -13z m179 11 c0 -8 -19 -13 -24 -6 -3 5 1 9 9 9 8 0 15 -2 15 -3z m-1390
-14 c12 -8 9 -10 -13 -10 -16 0 -26 4 -22 10 8 12 16 12 35 0z m134 -2 c-5 -7
-2 -9 9 -5 11 4 14 2 11 -8 -3 -8 -12 -11 -20 -8 -15 6 -18 16 -7 26 10 11 15
8 7 -5z m383 -3 c0 -8 -4 -12 -9 -9 -5 3 -6 10 -3 15 9 13 12 11 12 -6z m568
5 c-3 -5 -12 -10 -18 -10 -7 0 -6 4 3 10 19 12 23 12 15 0z m-1018 -6 c-3 -3
-12 -4 -19 -1 -8 3 -5 6 6 6 11 1 17 -2 13 -5z m213 -25 c-7 -11 -14 -18 -17
-15 -3 3 0 12 7 21 18 21 23 19 10 -6z m235 -2 c4 5 5 3 2 -4 -10 -17 -40 -9
-43 11 -2 16 -1 16 15 2 10 -9 21 -13 26 -9z m398 -14 c15 -38 15 -38 -14 -57
-17 -10 -32 -16 -35 -14 -6 7 18 108 27 108 4 0 14 -17 22 -37z m547 21 c11
-12 11 -15 0 -12 -8 2 -14 -2 -15 -9 0 -6 -3 -14 -6 -17 -3 -4 -5 6 -3 21 3
40 5 41 24 17z m217 10 c-3 -3 -12 -4 -19 -1 -8 3 -5 6 6 6 11 1 17 -2 13 -5z
m-1602 -13 c3 -5 1 -12 -4 -15 -5 -3 -11 1 -15 9 -6 16 9 21 19 6z m1155 5 c0
-2 -7 -7 -16 -10 -8 -3 -12 -2 -9 4 6 10 25 14 25 6z m-1245 -16 c3 -5 1 -10
-4 -10 -6 0 -11 5 -11 10 0 6 2 10 4 10 3 0 8 -4 11 -10z m685 4 c0 -8 -19
-13 -24 -6 -3 5 1 9 9 9 8 0 15 -2 15 -3z m47 -6 c-2 -7 3 -22 12 -33 15 -18
15 -19 -2 -6 -16 13 -17 11 -15 -20 2 -19 10 -40 18 -47 8 -8 9 -11 2 -7 -6 3
-20 -1 -29 -10 -11 -12 -18 -13 -23 -5 -4 6 -13 10 -20 8 -15 -4 -21 50 -6 59
5 3 6 1 2 -5 -3 -6 -3 -13 2 -15 4 -3 12 6 19 19 9 20 9 24 -5 25 -12 0 -10 3
6 9 12 5 22 16 22 25 0 8 5 15 11 15 6 0 9 -6 6 -12z m409 -32 c-2 -38 -12
-39 -12 -1 0 18 3 32 7 30 3 -3 5 -15 5 -29z m-31 15 c3 -5 2 -12 -3 -15 -5
-3 -9 1 -9 9 0 17 3 19 12 6z m294 -41 c14 -28 29 -50 34 -50 5 0 6 -7 3 -16
-3 -8 -2 -13 2 -11 4 3 18 -7 32 -20 l25 -25 -55 7 c-30 4 -58 9 -62 12 -14 8
-8 25 7 20 8 -4 17 -2 20 3 3 5 -7 10 -22 12 -28 3 -28 4 -24 98 2 33 14 23
40 -30z m-876 24 c-2 -5 -9 -9 -15 -9 -7 0 -13 -5 -13 -12 0 -6 -3 -15 -7 -19
-5 -4 -8 -18 -8 -31 0 -13 -4 -22 -9 -19 -11 7 -1 56 11 56 6 0 5 7 -2 16 -11
12 -11 15 1 12 8 -2 13 2 12 9 -1 6 5 10 15 9 9 -2 16 -7 15 -12z m737 10 c0
-8 -19 -13 -24 -6 -3 5 1 9 9 9 8 0 15 -2 15 -3z m-1005 -23 c-3 -6 -11 -8
-17 -5 -6 4 -5 9 3 15 16 10 23 4 14 -10z m405 13 c0 -8 -19 -13 -24 -6 -3 5
1 9 9 9 8 0 15 -2 15 -3z m147 0 c-3 -3 -12 -4 -19 -1 -8 3 -5 6 6 6 11 1 17
-2 13 -5z m-350 -54 c-4 -53 -17 -82 -17 -38 0 30 11 88 16 88 3 0 3 -23 1
-50z m828 32 c-3 -3 -11 0 -18 7 -9 10 -8 11 6 5 10 -3 15 -9 12 -12z m-114
-9 c13 -16 12 -17 -3 -4 -17 13 -22 21 -14 21 2 0 10 -8 17 -17z m-1131 -9 c0
-2 -9 -4 -20 -4 -11 0 -20 4 -20 9 0 5 9 7 20 4 11 -3 20 -7 20 -9z m383 -3
c-3 -11 -11 -22 -19 -25 -11 -4 -11 0 2 19 20 30 24 31 17 6z m549 -25 c41
-68 40 -75 -17 -97 -60 -23 -71 -24 -55 -4 11 13 8 13 -25 -1 -20 -8 -40 -13
-43 -10 -7 8 17 87 32 105 11 14 66 51 76 51 3 0 17 -20 32 -44z m368 10 c0
-2 -8 -10 -17 -17 -16 -13 -17 -12 -4 4 13 16 21 21 21 13z m170 0 c0 -2 -9
-6 -20 -9 -11 -3 -18 -1 -14 4 5 9 34 13 34 5z m-1544 -18 c-22 -12 -85 -13
-96 -1 -5 4 19 9 53 10 46 1 57 -1 43 -9z m54 5 c0 -5 -7 -17 -16 -28 -14 -19
-14 -19 -10 5 2 14 5 26 5 28 2 6 21 1 21 -5z m65 -3 c3 -5 2 -10 -4 -10 -5 0
-13 5 -16 10 -3 6 -2 10 4 10 5 0 13 -4 16 -10z m420 1 c3 -5 1 -12 -5 -16 -5
-3 -10 1 -10 9 0 18 6 21 15 7z m-85 -17 c0 -8 -5 -12 -10 -9 -6 4 -8 11 -5
16 9 14 15 11 15 -7z m893 -21 c-3 -7 -6 -13 -8 -13 -2 0 -5 6 -8 13 -3 8 1
14 8 14 7 0 11 -6 8 -14z m-1254 -19 c6 -15 10 -29 7 -31 -2 -2 -7 5 -11 16
-3 12 -15 21 -26 21 -10 0 -19 5 -19 10 0 21 37 9 49 -16z m-104 -14 c3 -5 -1
-10 -10 -10 -9 0 -13 5 -10 10 3 6 8 10 10 10 2 0 7 -4 10 -10z m63 -15 c-3
-3 -9 2 -12 12 -6 14 -5 15 5 6 7 -7 10 -15 7 -18z m399 3 c-3 -8 -6 -5 -6 6
-1 11 2 17 5 13 3 -3 4 -12 1 -19z m964 -35 c16 -32 28 -43 48 -43 11 0 9 4
-5 15 -17 13 -17 14 -1 15 9 0 17 5 17 10 0 6 -10 8 -24 4 -16 -4 -25 -1 -29
10 -4 10 -1 16 8 16 8 0 15 -6 15 -12 0 -9 4 -8 11 2 8 11 12 12 16 3 2 -7 16
-13 29 -13 16 0 24 -6 24 -17 0 -15 2 -14 14 3 14 18 15 18 22 1 11 -30 -27
-71 -69 -75 -29 -3 -43 3 -76 34 -23 20 -41 32 -41 28 0 -13 20 -41 20 -29 0
5 6 0 14 -11 20 -27 87 -47 119 -35 14 5 28 7 32 3 3 -3 10 0 15 7 17 28 38 2
54 -69 19 -86 20 -114 4 -143 -40 -77 -155 -174 -264 -224 -51 -23 -65 -25
-148 -21 -116 7 -224 39 -262 79 -15 16 -33 29 -39 29 -7 0 -12 7 -12 15 0 11
9 8 34 -11 41 -31 44 -22 3 13 -16 13 -30 31 -30 38 0 7 -13 39 -30 70 -34 65
-36 81 -13 107 9 10 11 18 5 18 -6 0 -14 -5 -17 -10 -4 -6 -11 -8 -16 -4 -15
9 62 56 83 51 11 -3 18 0 18 9 0 8 5 14 10 14 6 0 10 -4 10 -8 0 -16 30 -9 47
11 13 15 14 18 3 13 -8 -4 -5 1 6 11 12 10 25 29 29 43 7 23 6 23 -19 -7 -16
-19 -46 -38 -75 -48 -44 -14 -53 -14 -85 -1 -20 8 -36 22 -36 30 0 16 57 49
70 41 5 -3 10 -1 12 4 1 5 21 11 43 13 31 2 40 -1 43 -15 3 -12 -8 -22 -35
-34 -30 -13 -34 -18 -18 -21 23 -5 75 48 75 77 0 20 25 35 41 25 5 -3 9 -17 9
-32 0 -15 4 -33 9 -41 7 -11 11 -10 20 5 16 29 13 7 -5 -27 -20 -39 -14 -45
19 -19 14 11 30 20 36 20 6 0 11 3 11 8 0 4 18 20 40 36 22 17 40 34 40 39 0
4 -5 5 -12 1 -7 -4 -8 -3 -4 5 10 16 66 -41 66 -68 0 -12 4 -21 9 -21 5 0 7 9
4 20 -5 19 -4 19 31 5 48 -20 50 -19 25 15 -22 29 -22 30 -4 50 25 27 39 25
56 -7z m-1471 1 c0 -7 -8 -10 -20 -7 -30 8 -32 19 -4 19 13 0 24 -5 24 -12z
m110 5 c0 -6 -7 -8 -16 -5 -9 4 -23 1 -30 -5 -14 -11 -20 1 -7 14 11 11 53 8
53 -4z m387 -4 c0 -8 -4 -12 -9 -9 -4 3 -8 9 -8 15 0 5 4 9 8 9 5 0 9 -7 9
-15z m90 -7 c-3 -8 -6 -5 -6 6 -1 11 2 17 5 13 3 -3 4 -12 1 -19z m378 2 c-3
-5 -10 -10 -16 -10 -5 0 -9 5 -9 10 0 6 7 10 16 10 8 0 12 -4 9 -10z m-964
-33 c-1 -12 -15 -9 -19 4 -3 6 1 10 8 8 6 -3 11 -8 11 -12z m114 4 c-8 -7 -95
-8 -95 0 0 4 23 6 50 6 28 0 48 -2 45 -6z m330 -9 c-3 -3 1 -12 8 -20 10 -13
9 -14 -1 -8 -10 6 -13 3 -10 -12 2 -12 -1 -22 -6 -24 -5 -2 -10 7 -11 20 -1
12 3 22 8 22 5 0 5 6 -2 13 -8 10 -7 14 4 14 8 0 13 -3 10 -5z m-501 -24 c-7
-11 -34 -10 -34 1 0 6 9 9 19 8 11 0 17 -5 15 -9z m143 -2 c6 -6 -4 -7 -62 -8
-48 -1 -65 2 -65 10 0 8 119 7 127 -2z m54 2 c0 -10 2 -10 6 0 2 6 9 12 15 12
6 0 4 -8 -4 -17 -9 -10 -13 -25 -10 -33 3 -8 -4 -4 -16 10 -20 24 -20 40 -1
40 5 0 9 -6 10 -12z m406 -13 c0 -8 -4 -12 -9 -9 -5 3 -6 10 -3 15 9 13 12 11
12 -6z m-509 -32 c2 -7 -1 -13 -8 -13 -6 0 -9 4 -5 9 3 5 -3 12 -12 15 -15 4
-15 5 1 3 11 -1 21 -8 24 -14z m58 -1 c-10 -2 -22 0 -28 6 -6 6 0 7 19 4 21
-5 23 -7 9 -10z m404 -34 c0 -12 -6 -9 -26 13 -19 22 -19 22 4 8 12 -8 22 -17
22 -21z m-350 2 c-8 -5 -18 -6 -24 -3 -5 4 -1 10 10 13 24 9 34 2 14 -10z
m261 -3 c-10 -9 -11 -8 -5 6 3 10 9 15 12 12 3 -3 0 -11 -7 -18z m185 11 c4
-6 3 -8 -4 -4 -6 3 -13 2 -16 -3 -4 -5 -2 -12 3 -16 5 -3 8 -14 6 -25 -2 -13
2 -20 11 -20 9 0 12 5 8 12 -5 7 -3 8 5 3 9 -5 9 -11 3 -17 -15 -15 -41 -2
-37 19 1 10 -5 27 -14 37 -9 11 -11 16 -4 13 6 -4 14 -3 18 3 8 13 12 13 21
-2z m-576 -2 c0 -2 -7 -7 -16 -10 -8 -3 -12 -2 -9 4 6 10 25 14 25 6z m62 -8
c-9 -9 -15 -9 -24 0 -9 9 -7 12 12 12 19 0 21 -3 12 -12z m239 -11 c-10 -9
-11 -8 -5 6 3 10 9 15 12 12 3 -3 0 -11 -7 -18z m150 4 c0 -3 2 -13 4 -22 1
-9 -3 -16 -10 -16 -7 0 -12 10 -11 21 1 13 -4 20 -12 18 -8 -1 -11 2 -7 7 6
10 34 4 36 -8z m62 -1 c3 -11 1 -18 -4 -14 -5 3 -9 12 -9 20 0 20 7 17 13 -6z
m-358 -21 c-4 -5 -12 -9 -18 -8 -9 0 -8 2 1 6 6 2 9 10 6 15 -4 7 -2 8 5 4 6
-4 9 -12 6 -17z m-245 1 c0 -5 -2 -10 -4 -10 -3 0 -8 5 -11 10 -3 6 -1 10 4
10 6 0 11 -4 11 -10z m80 2 c0 -5 -7 -9 -15 -9 -8 0 -12 4 -9 9 3 4 9 8 15 8
5 0 9 -4 9 -8z m340 -12 c0 -5 -2 -10 -4 -10 -3 0 -8 5 -11 10 -3 6 -1 10 4
10 6 0 11 -4 11 -10z m84 2 c3 -5 -1 -9 -9 -9 -8 0 -12 4 -9 9 3 4 7 8 9 8 2
0 6 -4 9 -8z m-504 -28 c0 -8 -5 -12 -10 -9 -6 4 -8 11 -5 16 9 14 15 11 15
-7z m200 12 c0 -2 -8 -10 -17 -17 -16 -13 -17 -12 -4 4 13 16 21 21 21 13z
m375 -13 c-2 -10 -4 -19 -4 -21 -1 -2 -6 0 -11 3 -8 5 -7 11 1 21 15 18 18 18
14 -3z m-425 3 c0 -3 -4 -8 -10 -11 -5 -3 -10 -1 -10 4 0 6 5 11 10 11 6 0 10
-2 10 -4z m104 -7 c-2 -4 -13 -7 -24 -6 -10 1 -17 4 -14 8 2 4 13 7 24 6 10
-1 17 -4 14 -8z m106 -31 l-1 -33 -14 25 c-18 32 -18 40 0 40 10 0 15 -10 15
-32z m-280 8 c0 -2 -7 -7 -16 -10 -8 -3 -12 -2 -9 4 6 10 25 14 25 6z m105
-24 c-8 -8 -25 10 -19 20 4 6 9 5 15 -3 4 -7 6 -15 4 -17z m140 -9 c-5 -10 -8
-21 -7 -24 0 -3 -6 -6 -14 -6 -12 0 -12 3 1 17 18 19 20 44 3 34 -7 -5 -8 -3
-3 5 11 19 29 -4 20 -26z m76 14 c-10 -9 -11 -8 -5 6 3 10 9 15 12 12 3 -3 0
-11 -7 -18z m-361 9 c0 -3 -4 -8 -10 -11 -5 -3 -10 -1 -10 4 0 6 5 11 10 11 6
0 10 -2 10 -4z m615 -17 c0 -8 5 -14 12 -14 6 0 15 -4 20 -9 4 -5 3 -6 -4 -2
-16 9 -26 -11 -11 -21 7 -4 22 -8 33 -8 15 0 20 -7 20 -30 0 -16 3 -35 7 -41
4 -6 1 -11 -7 -11 -8 0 -12 3 -10 7 2 4 -6 16 -18 27 -19 17 -28 19 -53 14 -4
0 0 -9 7 -18 12 -16 12 -17 -2 -6 -9 7 -20 9 -25 5 -4 -4 -2 2 6 12 18 22 20
58 5 68 -6 5 -5 8 4 8 11 0 10 4 -3 19 -17 19 -17 19 1 17 10 -2 18 -9 18 -17z
m1480 -34 c-10 -19 -23 -35 -28 -35 -6 0 -3 8 5 18 9 9 19 27 23 40 4 13 10
21 13 17 3 -3 -2 -21 -13 -40z m-1724 12 c-10 -9 -11 -8 -5 6 3 10 9 15 12 12
3 -3 0 -11 -7 -18z m88 16 c-3 -21 3 -24 19 -12 15 13 16 12 3 -4 -10 -13 -17
-15 -27 -6 -8 6 -11 15 -8 20 6 11 14 12 13 2z m-429 -14 c12 -9 12 -10 -4 -5
-10 4 -26 1 -35 -6 -14 -12 -14 -11 -2 5 16 20 21 21 41 6z m80 1 c-8 -5 -22
-10 -30 -10 -13 0 -13 1 0 10 8 5 22 10 30 10 13 0 13 -1 0 -10z m430 0 c0 -5
-2 -10 -4 -10 -3 0 -8 5 -11 10 -3 6 -1 10 4 10 6 0 11 -4 11 -10z m-580 -10
c0 -5 -4 -10 -10 -10 -5 0 -10 5 -10 10 0 6 5 10 10 10 6 0 10 -4 10 -10z
m207 4 c-3 -3 -12 -4 -19 -1 -8 3 -5 6 6 6 11 1 17 -2 13 -5z m57 -6 c-3 -4
-11 -5 -19 -1 -21 7 -19 12 4 10 11 0 18 -5 15 -9z m91 3 c3 -5 2 -12 -3 -15
-5 -3 -9 1 -9 9 0 17 3 19 12 6z m188 -16 c-3 -9 -8 -14 -10 -11 -3 3 -2 9 2
15 9 16 15 13 8 -4z m-486 -2 c-4 -3 -1 -13 6 -22 11 -14 10 -14 -5 -2 -16 12
-16 31 -1 31 4 0 3 -3 0 -7z m-42 -23 c-3 -5 -1 -11 5 -15 5 -3 10 0 10 7 0 9
2 10 8 2 4 -7 16 -14 27 -17 14 -3 11 -5 -10 -6 -16 0 -35 3 -41 7 -13 8 -15
44 -2 36 5 -3 6 -9 3 -14z m129 11 c3 -5 -1 -11 -9 -14 -9 -4 -12 -1 -8 9 6
16 10 17 17 5z m46 -6 c0 -2 -6 -5 -13 -8 -8 -3 -14 1 -14 8 0 7 6 11 14 8 7
-3 13 -6 13 -8z m115 -3 c0 -7 5 -11 10 -9 6 1 9 4 8 8 -1 3 9 5 22 5 14 0 22
-2 20 -5 -3 -2 5 -15 17 -28 12 -13 18 -23 14 -23 -5 0 -2 -8 5 -17 13 -16 12
-17 -3 -4 -16 12 -22 9 -20 -9 0 -4 -10 -6 -24 -6 -29 0 -31 12 -4 26 30 16
16 27 -30 25 -22 -1 -48 4 -58 12 -15 13 -15 13 6 3 12 -6 22 -8 22 -5 0 3 0
8 0 13 0 4 -4 7 -9 7 -6 0 -15 5 -21 11 -8 8 -3 11 17 9 15 0 28 -6 28 -13z
m135 8 c0 -5 -2 -10 -4 -10 -3 0 -8 5 -11 10 -3 6 -1 10 4 10 6 0 11 -4 11
-10z m67 -5 c0 -8 -4 -12 -9 -9 -5 3 -6 10 -3 15 9 13 12 11 12 -6z m-63 -27
c-5 -8 -1 -9 12 -4 14 5 16 4 7 -5 -13 -13 -37 -3 -28 12 4 5 8 9 11 9 3 0 2
-5 -2 -12z m156 -8 c-12 -23 -16 -24 -26 -8 -4 6 -3 8 3 5 6 -4 13 0 17 8 3 8
8 15 11 15 3 0 1 -9 -5 -20z m-364 2 c-9 -9 -57 -11 -78 -3 -18 7 -12 9 29 8
28 -1 50 -3 49 -5z m1694 -23 c0 -11 5 -17 10 -14 6 3 10 -3 10 -14 0 -11 -6
-23 -12 -27 -7 -4 -10 -4 -6 0 3 4 0 23 -8 42 -8 20 -10 34 -4 34 5 0 10 -9
10 -21z m-1900 -6 c0 -10 -4 -14 -8 -8 -4 6 -11 13 -16 18 -5 4 -2 7 7 7 10 0
17 -8 17 -17z m35 -3 c3 -5 -1 -10 -10 -10 -9 0 -13 5 -10 10 3 6 8 10 10 10
2 0 7 -4 10 -10z m166 -7 c11 -15 11 -16 -1 -6 -11 10 -17 10 -29 0 -14 -11
-14 -10 -2 6 7 9 15 17 16 17 1 0 9 -8 16 -17z m59 -3 c18 -12 2 -12 -25 0
-13 6 -15 9 -5 9 8 0 22 -4 30 -9z m317 3 c-4 -3 -2 -12 4 -19 7 -8 6 -14 -2
-20 -7 -4 -9 -3 -5 4 3 6 2 13 -4 17 -10 6 -5 25 7 25 4 0 3 -3 0 -7z m-527
-23 c13 -8 13 -10 -2 -10 -9 0 -20 5 -23 10 -8 13 5 13 25 0z m466 -18 c-4 -3
-14 2 -24 12 -16 18 -16 18 6 6 13 -6 21 -14 18 -18z m101 13 c0 -8 -4 -12 -9
-9 -4 3 -8 9 -8 15 0 5 4 9 8 9 5 0 9 -7 9 -15z m-397 -5 c0 -5 -5 -10 -11
-10 -5 0 -7 5 -4 10 3 6 8 10 11 10 2 0 4 -4 4 -10z m24 -6 c3 -8 2 -12 -4 -9
-6 3 -10 10 -10 16 0 14 7 11 14 -7z m180 7 c3 -4 -4 -7 -14 -8 -11 -1 -22 2
-24 6 -3 4 4 7 14 8 11 1 22 -2 24 -6z m-32 -25 c7 4 8 2 4 -5 -9 -14 -36 3
-36 23 0 6 5 3 11 -7 6 -9 15 -14 21 -11z m-358 -17 c-26 -29 -26 -49 2 -59
29 -11 32 -20 5 -13 -11 3 -30 16 -43 31 -12 14 -18 22 -12 19 14 -8 57 36 47
48 -5 4 -2 5 5 1 11 -6 10 -12 -4 -27z m625 17 c11 -14 6 -15 -27 -7 -4 1 8
21 12 21 2 0 9 -6 15 -14z m1029 -14 c17 -13 36 -20 42 -17 5 3 10 1 10 -4 0
-16 -19 -13 -79 13 -30 13 -48 26 -40 28 21 8 32 4 67 -20z m-1459 -11 c-3 -8
-11 -6 -24 4 -11 9 -14 14 -7 10 6 -3 12 -1 12 6 0 10 3 10 11 2 6 -6 10 -16
8 -22z m379 4 c-3 -3 -9 2 -12 12 -6 14 -5 15 5 6 7 -7 10 -15 7 -18z m-608 9
c0 -8 -19 -13 -24 -6 -3 5 1 9 9 9 8 0 15 -2 15 -3z m144 -2 c3 -5 -1 -9 -9
-9 -8 0 -12 4 -9 9 3 4 7 8 9 8 2 0 6 -4 9 -8z m36 -2 c0 -5 -5 -10 -11 -10
-5 0 -7 5 -4 10 3 6 8 10 11 10 2 0 4 -4 4 -10z m81 -7 c13 -16 12 -17 -3 -4
-17 13 -22 21 -14 21 2 0 10 -8 17 -17z m330 -10 c13 -17 13 -17 -6 -3 -11 8
-22 16 -24 17 -2 2 0 3 6 3 6 0 17 -8 24 -17z m-417 -24 c-4 -7 -44 0 -44 7 0
2 11 3 24 2 14 -1 23 -5 20 -9z m1631 -25 c22 -33 5 -30 -29 5 -25 26 -26 29
-8 24 12 -3 28 -16 37 -29z m-669 -29 c10 -8 15 -14 9 -14 -5 0 -19 6 -29 14
-11 8 -15 15 -10 15 6 0 19 -7 30 -15z m-570 -27 l29 -33 -32 29 c-31 28 -38
36 -30 36 2 0 16 -15 33 -32z m-326 12 c8 -5 11 -10 5 -10 -5 0 -17 5 -25 10
-8 5 -10 10 -5 10 6 0 17 -5 25 -10z m1035 -20 c3 -6 -1 -7 -9 -4 -18 7 -21
14 -7 14 6 0 13 -4 16 -10z m-64 -9 c-15 -10 -8 -15 32 -25 29 -7 36 -23 12
-32 -8 -4 -12 -10 -9 -15 3 -5 1 -9 -5 -9 -21 0 -21 21 -1 28 20 7 18 10 -22
25 -34 14 -40 20 -28 27 8 5 20 10 25 10 6 0 4 -4 -4 -9z m59 -11 c8 -5 11
-10 5 -10 -5 0 -17 5 -25 10 -8 5 -10 10 -5 10 6 0 17 -5 25 -10z m-585 -81
c11 -17 -1 -21 -15 -4 -8 9 -8 15 -2 15 6 0 14 -5 17 -11z"/>
<path d="M1645 2340 c-4 -6 -10 -8 -14 -6 -4 3 -7 -6 -7 -19 0 -17 3 -21 11
-15 7 6 15 8 18 5 4 -3 5 -2 2 2 -3 3 0 12 6 19 6 8 6 14 0 18 -5 4 -12 2 -16
-4z m15 -4 c0 -2 -8 -10 -17 -17 -16 -13 -17 -12 -4 4 13 16 21 21 21 13z"/>
<path d="M1513 2295 c4 -5 -4 -21 -19 -36 -14 -15 -21 -29 -16 -33 11 -6 45
28 48 49 1 8 -3 18 -9 22 -7 3 -9 2 -4 -2z"/>
<path d="M1536 2097 c3 -10 9 -15 12 -12 3 3 0 11 -7 18 -10 9 -11 8 -5 -6z"/>
<path d="M1550 2057 c0 -2 15 -16 33 -33 l32 -29 -29 33 c-28 30 -36 37 -36
29z"/>
<path d="M1490 2031 c5 -11 15 -23 21 -27 6 -3 3 5 -6 20 -20 30 -30 35 -15 7z"/>
<path d="M1620 1986 c0 -2 8 -10 18 -17 15 -13 16 -12 3 4 -13 16 -21 21 -21
13z"/>
<path d="M1510 1925 c30 -30 57 -55 59 -55 3 0 -19 25 -49 55 -30 30 -57 55
-59 55 -3 0 19 -25 49 -55z"/>
<path d="M1540 1928 c41 -45 50 -53 50 -45 0 2 -21 23 -47 47 l-48 45 45 -47z"/>
<path d="M1495 1900 c27 -27 51 -50 54 -50 3 0 -17 23 -44 50 -27 28 -51 50
-54 50 -3 0 17 -22 44 -50z"/>
<path d="M1630 1877 c0 -2 15 -16 33 -33 l32 -29 -29 33 c-28 30 -36 37 -36
29z"/>
<path d="M1930 1616 c0 -2 7 -9 15 -16 13 -11 14 -10 9 4 -5 14 -24 23 -24 12z"/>
<path d="M1936 1565 c4 -8 11 -15 16 -15 6 0 5 6 -2 15 -7 8 -14 15 -16 15 -2
0 -1 -7 2 -15z"/>
<path d="M1960 1526 c0 -2 7 -9 15 -16 9 -7 15 -8 15 -2 0 5 -7 12 -15 16 -8
3 -15 4 -15 2z"/>
<path d="M568 1912 c-49 -48 -91 -91 -95 -97 -4 -5 36 33 90 85 89 87 102 100
95 100 -2 0 -42 -39 -90 -88z"/>
<path d="M676 1973 c-6 -14 -5 -15 5 -6 7 7 10 15 7 18 -3 3 -9 -2 -12 -12z"/>
<path d="M676 1934 c-5 -14 -4 -15 9 -4 17 14 19 20 6 20 -5 0 -12 -7 -15 -16z"/>
<path d="M740 1920 c7 -25 6 -36 -3 -42 -9 -6 -9 -8 2 -8 8 0 11 -6 7 -16 -3
-9 -2 -12 5 -9 13 8 6 82 -9 97 -9 9 -9 3 -2 -22z"/>
<path d="M629 1847 c-47 -45 -62 -60 -33 -34 33 29 59 45 67 41 6 -4 9 -3 4 1
-4 5 7 24 25 42 60 62 23 33 -63 -50z"/>
<path d="M587 1843 c-37 -36 -66 -67 -64 -69 2 -2 34 28 72 66 38 39 67 70 65
70 -3 0 -36 -30 -73 -67z"/>
<path d="M808 1873 c6 -2 18 -2 25 0 6 3 1 5 -13 5 -14 0 -19 -2 -12 -5z"/>
<path d="M539 1833 c-13 -16 -12 -17 4 -4 9 7 17 15 17 17 0 8 -8 3 -21 -13z"/>
<path d="M692 1747 c-34 -34 -62 -67 -62 -72 0 -6 29 21 65 59 59 62 71 76 62
76 -1 0 -31 -28 -65 -63z"/>
<path d="M484 1748 l-19 -23 23 19 c12 11 22 21 22 23 0 8 -8 2 -26 -19z"/>
<path d="M583 1739 c-18 -16 -33 -33 -33 -36 0 -4 16 8 35 27 32 31 39 40 33
40 -2 0 -18 -14 -35 -31z"/>
<path d="M419 1723 l-34 -38 38 34 c20 19 37 36 37 38 0 8 -8 0 -41 -34z"/>
<path d="M450 1683 l-55 -58 58 55 c31 30 57 56 57 57 0 8 -10 -1 -60 -54z"/>
<path d="M570 1688 c-25 -22 -36 -36 -25 -30 19 10 84 72 74 72 -2 -1 -24 -19
-49 -42z"/>
<path d="M509 1673 l-24 -28 28 24 c25 23 32 31 24 31 -2 0 -14 -12 -28 -27z"/>
<path d="M582 1639 c-18 -16 -28 -29 -23 -29 5 0 14 7 21 15 7 9 15 13 18 10
3 -3 -12 -23 -33 -45 -22 -22 -35 -40 -30 -40 4 0 0 -10 -11 -22 l-19 -23 22
19 c13 10 20 22 18 26 -3 5 -2 10 2 12 5 2 26 22 48 46 47 51 37 76 -13 31z
m38 11 c0 -5 -5 -10 -11 -10 -5 0 -7 5 -4 10 3 6 8 10 11 10 2 0 4 -4 4 -10z"/>
<path d="M444 1608 l-29 -33 33 29 c17 17 32 31 32 33 0 8 -8 1 -36 -29z"/>
<path d="M474 1598 l-29 -33 33 29 c30 28 37 36 29 36 -2 0 -16 -15 -33 -32z"/>
<path d="M519 1583 c-13 -16 -12 -17 4 -4 9 7 17 15 17 17 0 8 -8 3 -21 -13z"/>
<path d="M464 1528 l-29 -33 33 29 c17 17 32 31 32 33 0 8 -8 1 -36 -29z"/>
<path d="M1486 1712 c-3 -5 3 -17 13 -26 11 -10 22 -13 25 -8 3 5 -3 17 -13
26 -11 10 -22 13 -25 8z m25 -19 c13 -16 12 -17 -3 -4 -10 7 -18 15 -18 17 0
8 8 3 21 -13z"/>
<path d="M1345 1680 c-3 -5 -5 -10 -3 -11 33 -8 38 -7 27 7 -14 17 -16 17 -24
4z"/>
<path d="M1410 1595 c-7 -8 -9 -15 -5 -15 4 0 2 -6 -4 -13 -11 -15 -48 -17
-68 -4 -18 11 -25 -9 -8 -23 8 -7 13 -16 10 -20 -3 -5 -1 -11 5 -15 6 -4 8
-10 5 -15 -10 -16 13 -20 25 -5 10 12 16 13 26 4 8 -6 11 -16 7 -22 -3 -6 -1
-7 6 -3 6 4 9 11 6 16 -3 5 -1 11 5 15 6 4 8 10 5 15 -3 5 0 12 5 15 13 8 52
-24 45 -36 -3 -4 -1 -10 4 -14 6 -3 8 -13 5 -23 -5 -13 -4 -14 4 -3 8 11 9 39
2 49 -2 1 -3 12 -4 25 -1 18 -7 22 -36 22 -21 0 -35 -5 -35 -12 0 -7 -3 -13
-7 -13 -5 0 -11 0 -14 0 -4 0 -1 6 5 13 6 8 7 18 3 22 -4 5 -1 5 7 0 9 -5 12
-4 8 2 -5 8 45 10 63 3 3 -1 9 -2 13 -1 5 1 5 -4 1 -10 -4 -7 -3 -9 4 -5 7 4
10 -1 7 -13 -2 -11 7 -29 21 -42 13 -12 24 -21 25 -18 0 2 2 12 4 21 2 9 -5
24 -16 34 -10 9 -16 21 -12 27 3 5 1 7 -4 4 -12 -8 -36 17 -27 26 4 4 -4 4
-17 2 -12 -3 -30 2 -40 10 -14 14 -18 14 -29 0z m24 -3 c3 -5 -1 -9 -9 -9 -8
0 -12 4 -9 9 3 4 7 8 9 8 2 0 6 -4 9 -8z m-45 -58 c-11 -13 13 -38 26 -26 5 4
5 1 1 -6 -6 -9 -12 -10 -20 -3 -9 7 -16 7 -23 0 -7 -7 -14 -5 -23 6 -7 8 -9
15 -5 15 4 0 3 6 -3 13 -9 10 -3 13 23 13 24 0 31 -3 24 -12z m158 -39 c0 -13
-2 -13 -17 0 -9 8 -17 22 -17 30 0 13 2 13 17 0 9 -8 17 -22 17 -30z"/>
<path d="M1355 1521 c2 -19 18 -17 21 2 1 8 -4 14 -11 14 -7 0 -12 -7 -10 -16z"/>
<path d="M1496 1500 c11 -19 12 -51 3 -71 -10 -21 0 -32 17 -18 9 8 11 5 7
-10 -3 -12 -9 -19 -13 -16 -4 2 -5 -7 -2 -20 2 -14 -1 -31 -7 -39 -8 -10 -6
-17 9 -31 11 -10 20 -16 21 -14 6 23 4 61 -3 65 -4 3 -5 11 -1 17 4 7 8 20 9
30 1 9 2 18 3 20 15 17 6 48 -21 73 -17 16 -27 22 -22 14z m30 -184 c0 -14 -3
-23 -7 -20 -6 3 -6 22 0 42 3 10 7 -2 7 -22z"/>
<path d="M1625 1550 c-3 -5 -1 -11 5 -15 5 -3 10 -3 10 1 0 3 7 1 15 -6 11 -9
12 -16 5 -25 -8 -10 -8 -15 1 -21 7 -4 9 -3 5 4 -6 10 8 25 27 28 4 1 10 2 13
3 8 1 -16 31 -24 29 -4 0 -9 1 -12 2 -19 7 -41 7 -45 0z m46 -17 c13 -16 12
-17 -3 -4 -10 7 -18 15 -18 17 0 8 8 3 21 -13z"/>
<path d="M477 1433 c-4 -3 -7 -13 -7 -22 1 -13 3 -13 11 2 11 19 8 33 -4 20z"/>
<path d="M1696 1380 c5 -8 9 -18 9 -22 0 -5 4 -8 8 -9 18 -2 16 9 -5 27 -13
11 -18 13 -12 4z"/>
<path d="M426 1315 c-9 -26 -7 -32 5 -12 6 10 9 21 6 23 -2 3 -7 -2 -11 -11z"/>
<path d="M386 1273 c-6 -14 -5 -15 5 -6 7 7 10 15 7 18 -3 3 -9 -2 -12 -12z"/>
<path d="M1140 1140 c-18 -12 -2 -12 25 0 13 6 15 9 5 9 -8 0 -22 -4 -30 -9z"/>
<path d="M1040 1015 c7 -8 17 -15 22 -15 6 0 5 7 -2 15 -7 8 -17 15 -22 15 -6
0 -5 -7 2 -15z"/>
<path d="M1507 953 c-4 -3 -7 -11 -7 -17 0 -6 5 -5 12 2 6 6 9 14 7 17 -3 3
-9 2 -12 -2z"/>
<path d="M1455 730 c-13 -5 -14 -9 -5 -9 8 0 24 4 35 9 13 5 14 9 5 9 -8 0
-24 -4 -35 -9z"/>
<path d="M1525 730 c-17 -7 -14 -9 13 -9 20 -1 31 3 27 9 -7 12 -13 12 -40 0z"/>
<path d="M1390 710 l-35 -19 28 -1 c16 0 26 4 22 10 -4 6 6 7 27 3 18 -3 31
-4 28 -2 -30 26 -36 27 -70 9z"/>
<path d="M704 773 c2 -10 5 -16 9 -13 3 3 16 -5 29 -17 l24 -23 0 24 c0 16 -5
23 -15 21 -9 -1 -24 4 -33 12 -15 13 -16 13 -14 -4z"/>
<path d="M381 746 c-10 -12 -9 -14 6 -11 10 1 24 -2 31 -8 10 -8 9 -14 -5 -31
l-18 -21 23 19 22 19 -22 24 c-25 27 -23 27 -37 9z"/>
<path d="M1288 2499 c40 -26 36 -34 -12 -21 -27 8 -34 8 -29 -1 4 -7 7 -21 6
-32 -2 -18 -1 -18 4 -1 4 15 11 17 39 13 20 -4 32 -2 29 4 -4 5 -1 9 6 9 7 0
2 11 -11 25 -13 14 -33 25 -44 25 -17 0 -15 -4 12 -21z"/>
<path d="M344 2475 c19 -14 18 -15 -5 -25 l-24 -10 25 3 c33 3 38 33 8 40 -22
6 -22 5 -4 -8z"/>
<path d="M1300 2425 c10 -12 10 -18 1 -29 -10 -12 -9 -13 7 -9 23 6 19 38 -5
48 -13 4 -14 3 -3 -10z"/>
<path d="M1360 2425 c0 -2 12 -11 28 -19 15 -8 22 -15 15 -16 -8 0 -6 -12 6
-41 19 -43 51 -81 51 -62 0 6 -7 14 -16 17 -10 4 -13 13 -9 26 4 12 1 27 -5
35 -7 8 -9 15 -6 15 16 0 -25 44 -44 47 -11 1 -20 1 -20 -2z"/>
<path d="M2474 2409 c-3 -6 -2 -15 2 -19 12 -12 38 5 30 19 -9 14 -23 14 -32
0z"/>
<path d="M123 2324 c-18 -14 -41 -24 -50 -23 -45 4 -73 -2 -73 -16 0 -11 5
-12 26 -5 14 6 47 10 74 10 27 0 52 5 55 10 3 6 -2 10 -11 10 -16 0 -16 1 1
20 24 27 17 25 -22 -6z"/>
<path d="M295 2316 c10 -14 24 -26 32 -26 13 0 13 3 3 16 -8 8 -22 20 -32 25
-19 10 -19 9 -3 -15z"/>
<path d="M1340 2325 c-7 -8 -9 -15 -6 -15 4 0 14 7 22 15 9 8 11 15 6 15 -5 0
-15 -7 -22 -15z"/>
<path d="M2034 2102 c0 -11 8 -25 18 -31 10 -6 18 -7 18 -2 0 5 -8 19 -18 31
-17 21 -18 21 -18 2z"/>
<path d="M80 1965 c0 -8 5 -15 10 -15 6 0 10 7 10 15 0 8 -4 15 -10 15 -5 0
-10 -7 -10 -15z"/>
<path d="M257 1934 c6 -16 19 -18 27 -5 3 5 -3 11 -13 14 -14 3 -18 1 -14 -9z"/>
<path d="M30 1930 c0 -5 5 -10 11 -10 5 0 7 5 4 10 -3 6 -8 10 -11 10 -2 0 -4
-4 -4 -10z"/>
<path d="M16 1894 c-12 -31 -6 -41 23 -40 16 1 27 5 24 9 -3 5 -14 7 -24 4
-21 -6 -25 3 -8 20 7 7 7 13 1 17 -5 3 -13 -1 -16 -10z"/>
<path d="M75 1899 c-4 -6 -4 -13 -1 -16 3 -4 6 -1 6 4 0 6 6 10 13 9 23 -3 38
-18 33 -33 -4 -9 -1 -13 6 -11 6 2 12 14 13 27 1 14 -3 20 -11 17 -7 -3 -16
-1 -19 4 -8 13 -32 13 -40 -1z"/>
<path d="M2487 1833 l-27 -78 21 -55 c12 -30 25 -64 30 -75 4 -11 8 46 8 133
1 83 0 152 -2 152 -1 0 -15 -35 -30 -77z"/>
<path d="M160 1890 c0 -5 5 -10 10 -10 6 0 10 5 10 10 0 6 -4 10 -10 10 -5 0
-10 -4 -10 -10z"/>
<path d="M80 1860 c0 -5 4 -10 9 -10 6 0 13 5 16 10 3 6 -1 10 -9 10 -9 0 -16
-4 -16 -10z"/>
<path d="M130 1826 c0 -9 30 -14 35 -6 4 6 -3 10 -14 10 -12 0 -21 -2 -21 -4z"/>
<path d="M112 1763 c0 -39 1 -39 15 3 8 24 8 31 -2 31 -8 0 -13 -13 -13 -34z"/>
<path d="M24 1758 c-4 -18 -7 -37 -5 -42 1 -5 -4 -13 -11 -17 -10 -7 -10 -9 0
-9 9 0 10 -5 3 -18 -7 -14 -6 -19 4 -19 8 0 12 5 8 10 -3 5 3 6 14 3 13 -4 20
-2 20 8 0 8 -5 14 -11 13 -7 -1 -10 17 -8 51 4 59 -3 68 -14 20z"/>
<path d="M83 1676 c3 -6 14 -10 26 -9 11 2 20 -1 19 -5 0 -4 2 -15 6 -24 8
-18 26 -15 26 3 0 6 -5 7 -12 3 -7 -5 -9 -1 -6 13 5 18 0 22 -28 25 -21 3 -33
0 -31 -6z"/>
<path d="M80 1433 c0 -6 -17 -9 -38 -8 -26 1 -39 -3 -39 -11 0 -15 24 -27 31
-15 7 10 40 7 44 -4 1 -5 -13 -9 -32 -10 -57 0 -50 -11 9 -14 44 -2 54 1 49
12 -6 18 12 32 21 17 4 -6 11 -8 16 -4 6 4 6 11 -2 20 -6 7 -15 11 -21 8 -5
-3 -15 0 -23 6 -8 7 -15 8 -15 3z"/>
<path d="M117 1270 c2 -9 17 -17 33 -18 22 -2 28 2 27 15 -1 13 -9 18 -32 18
-24 0 -31 -4 -28 -15z"/>
<path d="M415 611 c-2 -5 2 -14 10 -21 8 -7 13 -16 10 -20 -10 -16 27 -33 83
-36 31 -2 50 -1 42 3 -8 3 -23 14 -34 25 -11 10 -28 16 -37 13 -11 -4 -22 1
-28 13 -12 22 -38 35 -46 23z"/>
<path d="M1839 521 c34 -31 47 -39 36 -21 -3 5 -20 19 -38 31 l-32 21 34 -31z"/>
<path d="M600 490 c12 -16 24 -30 26 -30 3 0 -4 14 -16 30 -12 17 -24 30 -26
30 -3 0 4 -13 16 -30z"/>
<path d="M1118 479 c23 -25 40 -48 37 -52 -3 -4 -2 -5 2 -2 11 8 32 -16 26
-31 -3 -8 0 -14 7 -14 6 0 8 5 5 10 -12 19 9 10 39 -17 l31 -28 -25 29 c-14
15 -56 55 -95 89 -57 49 -62 52 -27 16z"/>
<path d="M690 506 c0 -2 8 -10 18 -17 15 -13 16 -12 3 4 -13 16 -21 21 -21 13z"/>
<path d="M2047 503 c-10 -9 -9 -33 1 -33 4 0 8 9 8 20 0 23 0 22 -9 13z"/>
<path d="M2010 491 c0 -6 4 -13 10 -16 6 -3 7 1 4 9 -7 18 -14 21 -14 7z"/>
<path d="M1205 480 c3 -5 11 -10 16 -10 6 0 7 5 4 10 -3 6 -11 10 -16 10 -6 0
-7 -4 -4 -10z"/>
<path d="M1874 463 c11 -13 28 -23 38 -23 26 0 33 -25 13 -52 l-17 -23 5 28
c3 17 1 25 -5 19 -5 -5 -10 -26 -12 -47 -3 -36 -7 -40 -49 -55 -24 -8 -53 -22
-62 -30 -13 -11 -41 -15 -99 -14 -56 0 -70 -2 -46 -6 22 -5 27 -8 13 -9 -31
-2 -37 -18 -10 -25 12 -3 24 -1 25 4 2 6 21 10 43 10 21 0 39 5 39 10 0 6 11
10 23 10 16 0 28 -9 37 -27 8 -19 14 -23 18 -14 2 7 -1 17 -7 21 -9 5 -8 10 4
20 12 10 13 15 4 21 -8 4 3 11 28 18 41 11 68 32 57 44 -4 3 3 18 15 33 11 15
21 32 21 39 0 16 -35 47 -43 38 -4 -3 -17 2 -29 13 l-23 19 19 -22z"/>
<path d="M160 455 c0 -8 4 -15 10 -15 5 0 7 7 4 15 -4 8 -8 15 -10 15 -2 0 -4
-7 -4 -15z"/>
<path d="M1 417 c2 -1 13 -9 24 -17 19 -14 19 -14 6 3 -7 9 -18 17 -24 17 -6
0 -8 -1 -6 -3z"/>
<path d="M1985 370 c3 -5 8 -10 11 -10 2 0 4 5 4 10 0 6 -5 10 -11 10 -5 0 -7
-4 -4 -10z"/>
<path d="M50 343 c0 -19 156 -120 168 -109 1 2 -19 17 -45 33 -27 17 -55 37
-64 45 -20 20 -59 41 -59 31z"/>
<path d="M100 346 c0 -2 8 -10 18 -17 15 -13 16 -12 3 4 -13 16 -21 21 -21 13z"/>
<path d="M140 307 c0 -2 20 -18 45 -36 25 -18 43 -36 40 -41 -5 -9 46 -50 63
-50 15 0 113 -48 157 -76 39 -26 40 -26 19 -3 -11 13 -28 36 -37 52 -10 15
-24 27 -31 27 -13 0 -63 53 -99 104 -24 35 -39 24 -31 -21 8 -40 9 -41 -67 14
-42 30 -59 39 -59 30z m150 -35 c0 -5 16 -26 35 -47 40 -46 39 -56 -3 -26 -30
21 -60 81 -41 81 5 0 9 -4 9 -8z"/>
<path d="M1858 263 c-10 -2 -18 -9 -18 -14 0 -6 8 -5 20 1 11 6 20 13 20 15 0
3 -1 4 -2 4 -2 -1 -11 -3 -20 -6z"/>
<path d="M920 241 c0 -5 5 -13 10 -16 6 -3 10 -2 10 4 0 5 -4 13 -10 16 -5 3
-10 2 -10 -4z"/>
<path d="M1130 230 c0 -5 21 -10 48 -9 35 0 42 3 27 9 -28 12 -75 12 -75 0z"/>
<path d="M1572 231 c-11 -7 -11 -9 2 -14 10 -4 16 -1 16 8 0 17 -1 17 -18 6z"/>
<path d="M1493 218 c-24 -5 -43 -14 -43 -19 0 -10 33 -7 62 5 9 4 22 5 28 1 5
-3 10 1 10 9 0 18 2 18 -57 4z"/>
<path d="M1780 222 c0 -6 -10 -13 -22 -15 -18 -3 -17 -5 7 -6 18 0 42 -13 63
-33 21 -20 30 -25 24 -13 -16 28 -72 81 -72 67z"/>
<path d="M1056 205 c4 -8 8 -15 10 -15 2 0 4 7 4 15 0 8 -4 15 -10 15 -5 0 -7
-7 -4 -15z"/>
<path d="M1243 198 c12 -19 24 -23 60 -22 25 0 44 -3 42 -7 -4 -6 85 8 92 15
2 2 -35 5 -82 8 -47 2 -91 10 -97 16 -21 21 -31 13 -15 -10z"/>
<path d="M1092 191 c12 -20 48 -45 48 -34 -1 14 -24 39 -42 46 -15 5 -16 3 -6
-12z"/>
<path d="M1010 170 c0 -5 5 -10 11 -10 5 0 7 5 4 10 -3 6 -8 10 -11 10 -2 0
-4 -4 -4 -10z"/>
<path d="M1460 155 c7 -8 17 -15 22 -15 6 0 5 7 -2 15 -7 8 -17 15 -22 15 -6
0 -5 -7 2 -15z"/>
<path d="M870 136 c0 -2 8 -10 18 -17 15 -13 16 -12 3 4 -13 16 -21 21 -21 13z"/>
<path d="M589 66 c14 -15 26 -26 28 -26 9 0 -24 40 -37 45 -8 4 -4 -5 9 -19z"/>
<path d="M1890 81 c0 -5 7 -14 15 -21 12 -10 15 -10 15 3 0 8 -7 17 -15 21 -8
3 -15 2 -15 -3z"/>
<path d="M533 67 c4 -10 7 -21 7 -23 0 -2 7 -4 15 -4 8 0 14 -5 13 -11 -2 -6
3 -14 10 -16 19 -7 1 26 -29 52 -21 18 -22 19 -16 2z"/>
<path d="M512 36 c6 -14 15 -26 20 -26 10 0 -7 36 -22 45 -6 4 -5 -5 2 -19z"/>
<path d="M1920 20 c0 -11 4 -20 9 -20 5 0 7 9 4 20 -3 11 -7 20 -9 20 -2 0 -4
-9 -4 -20z"/>
<path d="M1101 14 c0 -11 3 -14 6 -6 3 7 2 16 -1 19 -3 4 -6 -2 -5 -13z"/>
</g>
</svg>
